<svg xmlns="http://www.w3.org/2000/svg" xmlns:xlink="http://www.w3.org/1999/xlink" width="500" zoomAndPan="magnify" viewBox="0 0 375 374.999991" height="500" preserveAspectRatio="xMidYMid meet" version="1.0"><defs><clipPath id="7ffd6effc9"><path d="M 90.359375 86 L 284.609375 86 L 284.609375 360.550781 L 90.359375 360.550781 Z M 90.359375 86 " clip-rule="nonzero"/></clipPath><clipPath id="e4dc269567"><path d="M 90.359375 86 L 169 86 L 169 360.550781 L 90.359375 360.550781 Z M 90.359375 86 " clip-rule="nonzero"/></clipPath><clipPath id="0998814ff5"><path d="M 188 86 L 284.609375 86 L 284.609375 360.550781 L 188 360.550781 Z M 188 86 " clip-rule="nonzero"/></clipPath></defs><path fill="#eaeae8" d="M 225.207031 92.574219 C 219.640625 92.574219 215.128906 88.054688 215.128906 82.480469 C 215.128906 76.90625 219.640625 72.390625 225.207031 72.390625 C 230.777344 72.390625 235.289062 76.90625 235.289062 82.480469 C 235.289062 88.054688 230.777344 92.574219 225.207031 92.574219 M 225.207031 62.839844 C 214.371094 62.839844 205.589844 71.632812 205.589844 82.480469 C 205.589844 93.328125 214.371094 102.125 225.207031 102.125 C 236.042969 102.125 244.828125 93.328125 244.828125 82.480469 C 244.828125 71.632812 236.042969 62.839844 225.207031 62.839844 " fill-opacity="1" fill-rule="nonzero"/><path fill="#f4f4f2" d="M 215.9375 86.6875 C 215.792969 85.5 215.699219 84.300781 215.652344 83.101562 L 213.441406 23.644531 L 161.523438 23.644531 L 159.3125 83.101562 C 159.265625 84.300781 159.171875 85.5 159.027344 86.6875 C 167.421875 87.105469 177.132812 87.347656 187.484375 87.347656 C 197.832031 87.347656 207.542969 87.105469 215.9375 86.6875 " fill-opacity="1" fill-rule="nonzero"/><path fill="#f4f4f2" d="M 215.9375 86.6875 C 215.792969 85.5 215.699219 84.300781 215.652344 83.101562 L 213.441406 23.644531 L 161.523438 23.644531 L 159.3125 83.101562 C 159.265625 84.300781 159.171875 85.5 159.027344 86.6875 C 167.421875 87.105469 177.132812 87.347656 187.484375 87.347656 C 197.832031 87.347656 207.542969 87.105469 215.9375 86.6875 " fill-opacity="1" fill-rule="nonzero"/><path fill="#ededeb" d="M 190.546875 87.339844 C 190.441406 86.269531 190.363281 85.191406 190.328125 84.113281 L 189.492188 59.914062 L 214.628906 59.914062 C 214.683594 59.914062 214.738281 59.910156 214.789062 59.910156 L 215.652344 83.101562 C 215.699219 84.300781 215.792969 85.5 215.9375 86.6875 C 208.378906 87.0625 199.746094 87.296875 190.546875 87.339844 M 214.496094 52.0625 L 189.21875 52.0625 L 214.230469 52.0625 C 214.324219 52.0625 214.410156 52.058594 214.496094 52.050781 L 214.496094 52.0625 " fill-opacity="1" fill-rule="nonzero"/><path fill="#f9f9f7" d="M 168.835938 85.964844 C 168.980469 84.773438 169.078125 83.578125 169.121094 82.375 L 169.984375 59.144531 C 168.085938 58.871094 166.625 57.242188 166.625 55.265625 C 166.625 53.1875 168.234375 51.488281 170.273438 51.351562 L 170.277344 51.324219 C 168.234375 51.1875 166.625 49.492188 166.625 47.414062 L 166.625 23.644531 L 161.523438 23.644531 L 159.3125 83.101562 C 159.265625 84.300781 159.171875 85.5 159.027344 86.6875 C 162.082031 86.84375 165.3125 86.972656 168.679688 87.070312 C 168.738281 86.703125 168.792969 86.335938 168.835938 85.964844 " fill-opacity="1" fill-rule="nonzero"/><g clip-path="url(#7ffd6effc9)"><path fill="#da6716" d="M 217.21875 112.53125 L 219.988281 108.410156 C 221.269531 106.496094 221.488281 103.882812 220.546875 101.714844 L 219.078125 98.335938 C 217.484375 94.675781 216.425781 90.742188 215.9375 86.6875 C 207.542969 87.105469 197.832031 87.347656 187.484375 87.347656 C 177.132812 87.347656 167.421875 87.105469 159.027344 86.6875 C 158.539062 90.742188 157.480469 94.675781 155.886719 98.335938 L 154.417969 101.714844 C 153.476562 103.882812 153.695312 106.496094 154.976562 108.410156 L 157.746094 112.53125 C 119.914062 117.1875 90.351562 157.242188 90.351562 205.964844 L 101.417969 341.777344 C 102.269531 352.230469 109.277344 360.175781 117.640625 360.175781 L 257.324219 360.175781 C 265.6875 360.175781 272.695312 352.230469 273.546875 341.777344 L 284.613281 205.964844 C 284.613281 157.242188 255.050781 117.1875 217.21875 112.53125 " fill-opacity="1" fill-rule="nonzero"/></g><path fill="#fadd8f" d="M 211.597656 52.0625 L 163.367188 52.0625 C 159.75 52.0625 156.8125 49.121094 156.8125 45.5 L 156.8125 21.652344 C 156.8125 18.027344 159.75 15.085938 163.367188 15.085938 L 211.597656 15.085938 C 215.214844 15.085938 218.152344 18.027344 218.152344 21.652344 L 218.152344 45.5 C 218.152344 49.121094 215.214844 52.0625 211.597656 52.0625 " fill-opacity="1" fill-rule="nonzero"/><path fill="#fcebbc" d="M 214.496094 52.050781 L 214.472656 51.398438 C 216.652344 50.332031 218.152344 48.089844 218.152344 45.5 L 218.152344 21.652344 C 218.152344 18.027344 215.214844 15.085938 211.597656 15.085938 L 214.230469 15.085938 C 216.398438 15.085938 218.152344 16.847656 218.152344 19.015625 L 218.152344 48.136719 C 218.152344 50.21875 216.539062 51.917969 214.496094 52.050781 " fill-opacity="1" fill-rule="nonzero"/><path fill="#eadaad" d="M 214.230469 52.0625 L 189.828125 52.0625 L 211.597656 52.0625 C 212.628906 52.0625 213.605469 51.824219 214.472656 51.398438 L 214.496094 52.050781 C 214.410156 52.058594 214.324219 52.0625 214.230469 52.0625 " fill-opacity="1" fill-rule="nonzero"/><path fill="#f7cc69" d="M 211.597656 52.0625 L 189.828125 52.0625 C 191.996094 52.0625 193.75 50.304688 193.75 48.136719 L 193.75 19.015625 C 193.75 16.847656 191.996094 15.085938 189.828125 15.085938 L 211.597656 15.085938 C 215.214844 15.085938 218.152344 18.027344 218.152344 21.652344 L 218.152344 45.5 C 218.152344 48.089844 216.652344 50.332031 214.472656 51.398438 C 213.605469 51.824219 212.628906 52.0625 211.597656 52.0625 " fill-opacity="1" fill-rule="nonzero"/><path fill="#f4cc7a" d="M 214.628906 59.914062 L 160.335938 59.914062 C 158.386719 59.914062 156.8125 58.332031 156.8125 56.386719 L 156.8125 55.585938 C 156.8125 53.640625 158.386719 52.0625 160.335938 52.0625 L 214.628906 52.0625 C 216.578125 52.0625 218.152344 53.640625 218.152344 55.585938 L 218.152344 56.386719 C 218.152344 58.332031 216.578125 59.914062 214.628906 59.914062 " fill-opacity="1" fill-rule="nonzero"/><path fill="#edb354" d="M 214.230469 59.914062 L 189.941406 59.914062 C 191.34375 59.316406 192.332031 57.921875 192.332031 56.296875 L 192.332031 55.988281 C 192.332031 53.820312 190.578125 52.0625 188.410156 52.0625 L 214.230469 52.0625 C 216.398438 52.0625 218.152344 53.820312 218.152344 55.988281 C 218.152344 58.15625 216.398438 59.914062 214.230469 59.914062 " fill-opacity="1" fill-rule="nonzero"/><path fill="#b75a1c" d="M 210.417969 111.714844 L 210.40625 111.714844 L 161.714844 111.378906 C 160.9375 111.375 160.3125 110.738281 160.320312 109.960938 C 160.324219 109.183594 160.953125 108.5625 161.726562 108.5625 L 161.734375 108.5625 L 210.425781 108.898438 C 211.203125 108.90625 211.824219 109.542969 211.820312 110.320312 C 211.816406 111.089844 211.191406 111.714844 210.417969 111.714844 " fill-opacity="1" fill-rule="nonzero"/><path fill="#b75a1c" d="M 207.613281 102.121094 L 207.601562 102.121094 L 158.910156 101.78125 C 158.136719 101.777344 157.511719 101.140625 157.515625 100.367188 C 157.519531 99.59375 158.148438 98.96875 158.921875 98.96875 L 158.933594 98.96875 L 207.621094 99.304688 C 208.398438 99.308594 209.023438 99.945312 209.015625 100.722656 C 209.011719 101.5 208.386719 102.121094 207.613281 102.121094 " fill-opacity="1" fill-rule="nonzero"/><path fill="#ed8843" d="M 218.09375 106.917969 L 218.089844 106.917969 L 169.394531 106.582031 C 168.621094 106.578125 167.996094 105.941406 168 105.164062 C 168.003906 104.394531 168.632812 103.765625 169.402344 103.765625 L 169.414062 103.765625 L 218.105469 104.105469 C 218.882812 104.109375 219.507812 104.746094 219.503906 105.523438 C 219.496094 106.296875 218.867188 106.917969 218.09375 106.917969 " fill-opacity="1" fill-rule="nonzero"/><path fill="#ed8843" d="M 214.722656 97.132812 L 214.710938 97.132812 L 166.023438 96.796875 C 165.246094 96.789062 164.621094 96.15625 164.625 95.378906 C 164.632812 94.605469 165.257812 93.980469 166.035156 93.980469 L 166.039062 93.980469 L 214.734375 94.320312 C 215.507812 94.324219 216.132812 94.957031 216.128906 95.738281 C 216.125 96.507812 215.496094 97.132812 214.722656 97.132812 " fill-opacity="1" fill-rule="nonzero"/><path fill="#fef693" d="M 222.816406 320.398438 L 143.015625 320.398438 C 136.644531 320.398438 131.34375 315.484375 130.871094 309.121094 L 124.332031 222.234375 C 121.753906 187.90625 148.878906 158.625 183.265625 158.625 C 217.839844 158.625 245.035156 188.210938 242.160156 222.707031 L 234.957031 309.214844 C 234.433594 315.535156 229.152344 320.398438 222.816406 320.398438 " fill-opacity="1" fill-rule="nonzero"/><path fill="#603813" d="M 222.816406 320.398438 L 222.816406 317.65625 L 143.015625 317.65625 C 138.078125 317.65625 133.972656 313.84375 133.601562 308.914062 L 127.070312 222.03125 C 126.957031 220.578125 126.90625 219.140625 126.90625 217.714844 C 126.90625 202.296875 133.15625 188.21875 143.332031 177.976562 C 153.515625 167.742188 167.585938 161.371094 183.265625 161.371094 C 198.960938 161.371094 213.03125 167.75 223.207031 177.988281 C 233.386719 188.234375 239.625 202.308594 239.625 217.710938 C 239.625 219.285156 239.5625 220.875 239.429688 222.484375 L 232.226562 308.988281 C 231.820312 313.886719 227.726562 317.65625 222.816406 317.65625 L 222.816406 323.148438 C 230.582031 323.144531 237.042969 317.1875 237.691406 309.445312 L 244.890625 222.9375 C 245.039062 221.179688 245.109375 219.4375 245.109375 217.710938 C 245.109375 200.804688 238.25 185.339844 227.097656 174.117188 C 215.949219 162.890625 200.464844 155.878906 183.265625 155.882812 C 166.082031 155.878906 150.597656 162.886719 139.449219 174.105469 C 128.289062 185.324219 121.421875 200.792969 121.421875 217.714844 C 121.421875 219.28125 121.480469 220.855469 121.597656 222.441406 L 128.132812 309.324219 C 128.71875 317.121094 135.207031 323.144531 143.015625 323.148438 L 222.816406 323.148438 L 222.816406 320.398438 " fill-opacity="1" fill-rule="nonzero"/><path fill="#f1b48a" d="M 168.726562 87.074219 C 168.714844 87.074219 168.699219 87.070312 168.679688 87.070312 C 168.699219 87.070312 168.714844 87.070312 168.726562 87.074219 " fill-opacity="1" fill-rule="nonzero"/><path fill="#f3b68c" d="M 168.679688 87.070312 C 167.441406 87.035156 166.21875 86.992188 165.015625 86.949219 C 166.21875 86.992188 167.441406 87.035156 168.679688 87.070312 " fill-opacity="1" fill-rule="nonzero"/><g clip-path="url(#e4dc269567)"><path fill="#e77c32" d="M 122.824219 360.175781 L 117.640625 360.175781 C 109.277344 360.175781 102.269531 352.230469 101.417969 341.777344 L 90.351562 205.964844 C 90.351562 157.242188 119.914062 117.1875 157.746094 112.53125 L 154.976562 108.410156 C 154.222656 107.28125 153.835938 105.917969 153.835938 104.542969 C 153.835938 103.578125 154.03125 102.609375 154.417969 101.714844 L 155.886719 98.335938 C 157.480469 94.675781 158.539062 90.742188 159.027344 86.6875 C 160.957031 86.785156 162.957031 86.871094 165.015625 86.949219 C 166.21875 86.992188 167.441406 87.035156 168.679688 87.070312 C 168.699219 87.070312 168.714844 87.074219 168.726562 87.074219 C 168.398438 89.429688 167.882812 91.746094 167.183594 93.988281 L 166.039062 93.980469 L 166.035156 93.980469 C 165.257812 93.980469 164.632812 94.605469 164.625 95.378906 C 164.621094 96.15625 165.246094 96.789062 166.023438 96.796875 L 166.191406 96.796875 C 166.035156 97.199219 165.867188 97.597656 165.699219 97.992188 L 165.253906 99.011719 L 158.933594 98.96875 L 158.921875 98.96875 C 158.148438 98.96875 157.519531 99.59375 157.515625 100.367188 C 157.511719 101.140625 158.136719 101.777344 158.910156 101.78125 L 164.058594 101.816406 C 163.320312 103.902344 163.585938 106.308594 164.785156 108.109375 L 165.109375 108.589844 L 161.734375 108.5625 L 161.726562 108.5625 C 160.953125 108.5625 160.324219 109.183594 160.320312 109.960938 C 160.3125 110.738281 160.9375 111.375 161.714844 111.378906 L 166.996094 111.414062 L 167.554688 112.253906 C 129.722656 116.925781 100.160156 157.164062 100.160156 206.113281 L 111.226562 342.539062 C 111.914062 351.023438 116.625 357.863281 122.824219 360.175781 " fill-opacity="1" fill-rule="nonzero"/></g><path fill="#d97735" d="M 166.996094 111.414062 L 161.714844 111.378906 C 160.9375 111.375 160.3125 110.738281 160.320312 109.960938 C 160.324219 109.183594 160.953125 108.5625 161.726562 108.5625 L 161.734375 108.5625 L 165.109375 108.589844 L 166.996094 111.414062 " fill-opacity="1" fill-rule="nonzero"/><path fill="#d97735" d="M 164.058594 101.816406 L 158.910156 101.78125 C 158.136719 101.777344 157.511719 101.140625 157.515625 100.367188 C 157.519531 99.59375 158.148438 98.96875 158.921875 98.96875 L 158.933594 98.96875 L 165.253906 99.011719 L 164.226562 101.382812 C 164.164062 101.527344 164.109375 101.671875 164.058594 101.816406 " fill-opacity="1" fill-rule="nonzero"/><path fill="#ee8944" d="M 166.191406 96.796875 L 166.023438 96.796875 C 165.246094 96.789062 164.621094 96.15625 164.625 95.378906 C 164.632812 94.605469 165.257812 93.980469 166.035156 93.980469 L 166.039062 93.980469 L 167.183594 93.988281 C 166.882812 94.941406 166.554688 95.875 166.191406 96.796875 " fill-opacity="1" fill-rule="nonzero"/><path fill="#fce2a9" d="M 160.730469 52.0625 L 168.28125 52.0625 C 168.851562 51.660156 169.535156 51.402344 170.277344 51.351562 L 170.277344 51.324219 C 168.234375 51.1875 166.625 49.492188 166.625 47.414062 L 166.625 18.289062 C 166.625 16.964844 167.277344 15.800781 168.277344 15.085938 L 160.730469 15.085938 C 158.566406 15.085938 156.8125 16.847656 156.8125 19.015625 L 156.8125 48.136719 C 156.8125 50.304688 158.566406 52.0625 160.730469 52.0625 " fill-opacity="1" fill-rule="nonzero"/><path fill="#df9d6d" d="M 190.363281 87.34375 C 190.363281 87.339844 190.363281 87.339844 190.363281 87.339844 C 190.421875 87.339844 190.484375 87.339844 190.546875 87.339844 C 196.21875 87.3125 201.671875 87.214844 206.796875 87.054688 C 201.617188 87.21875 196.097656 87.316406 190.363281 87.34375 " fill-opacity="1" fill-rule="nonzero"/><path fill="#d9986a" d="M 190.546875 87.339844 C 199.746094 87.296875 208.378906 87.0625 215.9375 86.6875 C 213.035156 86.832031 209.980469 86.957031 206.796875 87.054688 C 201.671875 87.214844 196.21875 87.3125 190.546875 87.339844 " fill-opacity="1" fill-rule="nonzero"/><g clip-path="url(#0998814ff5)"><path fill="#c7420a" d="M 257.324219 360.175781 L 230.160156 360.175781 C 238.527344 360.175781 245.535156 352.023438 246.386719 341.308594 L 257.453125 202.019531 C 257.453125 152.050781 226.660156 116.339844 188.828125 111.566406 L 210.40625 111.714844 L 210.417969 111.714844 C 211.191406 111.714844 211.816406 111.089844 211.820312 110.320312 C 211.824219 109.542969 211.203125 108.90625 210.425781 108.898438 L 190.632812 108.761719 L 191.945312 106.738281 L 218.089844 106.917969 L 218.09375 106.917969 C 218.867188 106.917969 219.496094 106.296875 219.503906 105.523438 C 219.507812 104.746094 218.882812 104.109375 218.105469 104.105469 L 193.75 103.9375 C 194.074219 103.445312 194.269531 102.78125 194.371094 102.027344 L 207.601562 102.121094 L 207.613281 102.121094 C 208.386719 102.121094 209.011719 101.5 209.015625 100.722656 C 209.023438 99.945312 208.398438 99.308594 207.621094 99.304688 L 194.367188 99.214844 C 194.285156 98.449219 194.148438 97.6875 193.984375 96.988281 L 214.710938 97.132812 L 214.722656 97.132812 C 215.496094 97.132812 216.125 96.507812 216.128906 95.738281 C 216.132812 94.957031 215.507812 94.324219 214.734375 94.320312 L 192.988281 94.171875 L 191.917969 91.636719 C 191.324219 90.242188 190.804688 88.804688 190.363281 87.34375 C 199.632812 87.300781 208.324219 87.066406 215.9375 86.6875 C 216.425781 90.742188 217.484375 94.675781 219.078125 98.335938 L 220.546875 101.714844 C 220.933594 102.609375 221.128906 103.578125 221.128906 104.542969 C 221.128906 105.917969 220.742188 107.28125 219.988281 108.410156 L 217.21875 112.53125 C 255.050781 117.1875 284.613281 157.242188 284.613281 205.964844 L 273.546875 341.777344 C 272.695312 352.230469 265.6875 360.175781 257.324219 360.175781 " fill-opacity="1" fill-rule="nonzero"/></g><path fill="#a73a0c" d="M 210.417969 111.714844 L 210.40625 111.714844 L 188.828125 111.566406 L 190.632812 108.761719 L 210.425781 108.898438 C 211.203125 108.90625 211.824219 109.542969 211.820312 110.320312 C 211.816406 111.089844 211.191406 111.714844 210.417969 111.714844 " fill-opacity="1" fill-rule="nonzero"/><path fill="#a73a0c" d="M 207.613281 102.121094 L 207.601562 102.121094 L 194.371094 102.027344 C 194.480469 101.167969 194.46875 100.1875 194.367188 99.214844 L 207.621094 99.304688 C 208.398438 99.308594 209.023438 99.945312 209.015625 100.722656 C 209.011719 101.5 208.386719 102.121094 207.613281 102.121094 " fill-opacity="1" fill-rule="nonzero"/><path fill="#d9571e" d="M 218.09375 106.917969 L 218.089844 106.917969 L 191.945312 106.738281 L 193.75 103.9375 L 218.105469 104.105469 C 218.882812 104.109375 219.507812 104.746094 219.503906 105.523438 C 219.496094 106.296875 218.867188 106.917969 218.09375 106.917969 " fill-opacity="1" fill-rule="nonzero"/><path fill="#d9571e" d="M 214.722656 97.132812 L 214.710938 97.132812 L 193.984375 96.988281 C 193.8125 96.273438 193.601562 95.621094 193.382812 95.105469 L 192.988281 94.171875 L 214.734375 94.320312 C 215.507812 94.324219 216.132812 94.957031 216.128906 95.738281 C 216.125 96.507812 215.496094 97.132812 214.722656 97.132812 " fill-opacity="1" fill-rule="nonzero"/><path fill="#f2d39c" d="M 160.730469 59.914062 L 169.957031 59.914062 L 169.984375 59.144531 C 168.085938 58.871094 166.625 57.242188 166.625 55.265625 C 166.625 53.9375 167.277344 52.769531 168.28125 52.0625 L 160.730469 52.0625 C 158.566406 52.0625 156.8125 53.820312 156.8125 55.988281 C 156.8125 58.15625 158.566406 59.914062 160.730469 59.914062 " fill-opacity="1" fill-rule="nonzero"/><path fill="#e22424" d="M 209.910156 217.683594 C 209.066406 212.828125 212.902344 205.78125 216.152344 204.9375 C 216.152344 204.9375 213.660156 205.570312 212.355469 204.683594 C 211.050781 203.796875 211.976562 200.800781 211.894531 200.335938 C 211.808594 199.871094 211.851562 198.730469 211.050781 197.085938 C 210.246094 195.441406 211.472656 193.960938 211.472656 193.960938 C 211.472656 193.960938 212.484375 191.597656 212.355469 189.660156 C 212.355469 189.660156 210.519531 193.28125 206.707031 194.128906 C 204.496094 194.625 204.867188 194.496094 202.578125 194.214844 C 199.84375 193.882812 197.644531 196.714844 195.453125 194.855469 C 193.261719 192.996094 191.109375 188.5625 192.542969 184.589844 C 192.542969 184.589844 189.503906 185.609375 188.015625 185.15625 C 187.089844 184.875 184.222656 183.746094 183.265625 174.96875 C 182.308594 183.746094 179.445312 184.875 178.515625 185.15625 C 177.03125 185.609375 173.992188 184.589844 173.992188 184.589844 C 175.425781 188.5625 173.269531 192.996094 171.078125 194.855469 C 168.886719 196.714844 166.6875 193.882812 163.957031 194.214844 C 161.667969 194.496094 162.039062 194.625 159.828125 194.128906 C 156.011719 193.28125 154.175781 189.660156 154.175781 189.660156 C 154.050781 191.597656 155.0625 193.960938 155.0625 193.960938 C 155.0625 193.960938 156.285156 195.441406 155.484375 197.085938 C 154.683594 198.730469 154.726562 199.871094 154.640625 200.335938 C 154.554688 200.800781 155.484375 203.796875 154.175781 204.683594 C 152.871094 205.570312 150.382812 204.9375 150.382812 204.9375 C 153.628906 205.78125 157.46875 212.828125 156.625 217.683594 C 155.804688 222.378906 150.453125 223.835938 150.109375 223.925781 C 152.554688 223.257812 156.679688 223.824219 157.761719 226.292969 C 158.28125 227.484375 157.003906 228.785156 157.003906 228.785156 C 161.90625 227.191406 165.167969 228.824219 166.699219 230.457031 C 170.789062 234.820312 167.078125 237.4375 167.078125 237.4375 C 170.257812 237.925781 174.144531 236.601562 177.3125 235.105469 C 178.828125 234.386719 180.4375 233.960938 182.070312 233.820312 C 181.898438 239.175781 180.003906 242.996094 176.398438 245.195312 C 175.734375 245.597656 175.527344 246.46875 175.929688 247.128906 C 176.195312 247.5625 176.65625 247.804688 177.128906 247.804688 C 177.378906 247.804688 177.628906 247.738281 177.859375 247.597656 C 182.355469 244.851562 184.707031 240.246094 184.886719 233.859375 C 186.371094 234.035156 187.835938 234.449219 189.222656 235.105469 C 192.390625 236.601562 196.277344 237.925781 199.453125 237.4375 C 199.453125 237.4375 196.082031 235.328125 199.832031 230.457031 C 201.199219 228.683594 204.625 227.191406 209.53125 228.785156 C 209.53125 228.785156 208.253906 227.484375 208.769531 226.292969 C 209.851562 223.824219 213.980469 223.257812 216.425781 223.925781 C 216.082031 223.835938 210.726562 222.378906 209.910156 217.683594 " fill-opacity="1" fill-rule="nonzero"/><path fill="#b52c2c" d="M 155.21875 200.4375 L 155.214844 200.441406 Z M 211.316406 200.433594 L 211.316406 200.441406 Z M 182.070312 233.234375 C 182.21875 233.234375 182.363281 233.292969 182.46875 233.394531 C 182.59375 233.507812 182.660156 233.671875 182.65625 233.839844 C 182.476562 239.398438 180.476562 243.390625 176.699219 245.695312 C 176.316406 245.929688 176.195312 246.4375 176.429688 246.824219 C 176.578125 247.070312 176.839844 247.21875 177.128906 247.21875 C 177.28125 247.21875 177.425781 247.175781 177.554688 247.097656 C 181.859375 244.46875 184.128906 240.007812 184.300781 233.84375 C 184.308594 233.679688 184.378906 233.523438 184.503906 233.421875 C 184.628906 233.308594 184.789062 233.257812 184.953125 233.277344 C 186.527344 233.464844 188.046875 233.898438 189.472656 234.570312 C 192.84375 236.171875 195.824219 236.980469 198.175781 236.949219 C 197.90625 236.558594 197.65625 236.046875 197.542969 235.410156 C 197.261719 233.828125 197.875 232.042969 199.367188 230.101562 C 200.714844 228.355469 203.785156 226.84375 208.242188 227.824219 C 208.046875 227.300781 207.964844 226.679688 208.234375 226.058594 C 209.023438 224.25 211.105469 223.367188 213.1875 223.136719 C 211.550781 222.121094 209.792969 220.4375 209.335938 217.78125 C 208.609375 213.621094 211.007812 208.253906 213.753906 205.722656 C 213.148438 205.664062 212.527344 205.507812 212.027344 205.167969 C 210.734375 204.292969 211.050781 202.222656 211.238281 200.988281 C 211.273438 200.773438 211.3125 200.507812 211.3125 200.417969 C 211.292969 200.3125 211.28125 200.1875 211.269531 200.042969 C 211.210938 199.492188 211.121094 198.574219 210.519531 197.34375 C 209.671875 195.589844 210.6875 194.035156 210.957031 193.667969 C 211.046875 193.449219 211.332031 192.707031 211.542969 191.808594 C 210.554688 192.933594 208.996094 194.222656 206.835938 194.703125 C 204.964844 195.117188 204.824219 195.113281 203.515625 194.933594 C 203.246094 194.894531 202.917969 194.847656 202.503906 194.796875 C 201.507812 194.679688 200.539062 195.058594 199.601562 195.429688 C 198.203125 195.984375 196.617188 196.609375 195.074219 195.304688 C 193.019531 193.5625 190.796875 189.5 191.683594 185.449219 C 190.597656 185.730469 188.929688 186.042969 187.847656 185.714844 C 185.6875 185.058594 184.15625 182.699219 183.265625 178.683594 C 182.378906 182.699219 180.839844 185.058594 178.6875 185.714844 C 177.605469 186.042969 175.933594 185.730469 174.847656 185.449219 C 175.738281 189.5 173.511719 193.5625 171.457031 195.304688 C 169.917969 196.609375 168.332031 195.984375 166.929688 195.429688 C 165.996094 195.058594 165.027344 194.679688 164.03125 194.796875 C 163.613281 194.847656 163.285156 194.894531 163.015625 194.933594 C 161.707031 195.113281 161.566406 195.117188 159.699219 194.703125 C 157.539062 194.222656 155.980469 192.929688 154.988281 191.808594 C 155.199219 192.707031 155.488281 193.449219 155.574219 193.667969 C 155.84375 194.03125 156.863281 195.589844 156.011719 197.34375 C 155.414062 198.574219 155.320312 199.492188 155.265625 200.042969 C 155.253906 200.1875 155.242188 200.3125 155.21875 200.417969 C 155.222656 200.507812 155.261719 200.773438 155.292969 200.988281 C 155.480469 202.222656 155.796875 204.292969 154.503906 205.167969 C 154.003906 205.507812 153.386719 205.664062 152.777344 205.722656 C 155.527344 208.253906 157.925781 213.621094 157.199219 217.78125 C 156.738281 220.4375 154.984375 222.121094 153.347656 223.136719 C 155.429688 223.367188 157.507812 224.25 158.300781 226.058594 C 158.570312 226.679688 158.488281 227.304688 158.289062 227.828125 C 163.46875 226.714844 166.328125 229.203125 167.125 230.058594 C 168.648438 231.683594 169.339844 233.289062 169.183594 234.832031 C 169.089844 235.726562 168.726562 236.4375 168.355469 236.949219 C 170.703125 236.980469 173.683594 236.171875 177.058594 234.570312 C 178.621094 233.835938 180.289062 233.386719 182.019531 233.238281 Z M 177.128906 248.386719 C 176.429688 248.386719 175.792969 248.035156 175.429688 247.433594 C 174.859375 246.496094 175.152344 245.265625 176.089844 244.695312 C 179.355469 242.703125 181.160156 239.265625 181.453125 234.480469 C 180.097656 234.664062 178.789062 235.050781 177.558594 235.632812 C 173.316406 237.640625 169.757812 238.441406 166.988281 238.015625 C 166.75 237.980469 166.5625 237.804688 166.507812 237.570312 C 166.457031 237.335938 166.542969 237.09375 166.742188 236.957031 C 166.75 236.949219 167.882812 236.121094 168.019531 234.695312 C 168.132812 233.507812 167.546875 232.21875 166.273438 230.859375 C 165.519531 230.058594 162.640625 227.570312 157.179688 229.34375 C 156.925781 229.425781 156.644531 229.320312 156.507812 229.09375 C 156.363281 228.859375 156.394531 228.5625 156.585938 228.375 C 156.59375 228.363281 157.574219 227.324219 157.222656 226.527344 C 156.296875 224.402344 152.546875 223.894531 150.324219 224.476562 L 150.25 224.492188 C 149.941406 224.574219 149.621094 224.386719 149.539062 224.078125 C 149.457031 223.761719 149.644531 223.445312 149.953125 223.359375 L 150.007812 223.34375 C 150.578125 223.1875 155.320312 221.761719 156.046875 217.582031 C 156.839844 212.992188 153.15625 206.261719 150.234375 205.503906 C 149.925781 205.421875 149.734375 205.105469 149.816406 204.789062 C 149.898438 204.476562 150.214844 204.289062 150.527344 204.367188 C 151.152344 204.523438 152.960938 204.804688 153.847656 204.199219 C 154.527344 203.738281 154.261719 201.996094 154.136719 201.164062 C 154.0625 200.675781 154.03125 200.433594 154.066406 200.230469 C 154.082031 200.152344 154.085938 200.050781 154.101562 199.929688 C 154.160156 199.339844 154.269531 198.246094 154.960938 196.832031 C 155.578125 195.554688 154.652344 194.382812 154.609375 194.335938 L 154.527344 194.195312 C 154.480469 194.089844 153.457031 191.675781 153.59375 189.621094 C 153.613281 189.355469 153.800781 189.136719 154.058594 189.082031 C 154.320312 189.03125 154.582031 189.15625 154.699219 189.390625 C 154.714844 189.425781 156.464844 192.785156 159.953125 193.558594 C 161.65625 193.9375 161.679688 193.9375 162.855469 193.769531 C 163.128906 193.734375 163.460938 193.6875 163.886719 193.632812 C 165.175781 193.476562 166.335938 193.933594 167.363281 194.339844 C 168.851562 194.929688 169.742188 195.222656 170.703125 194.40625 C 172.621094 192.78125 174.816406 188.601562 173.4375 184.792969 C 173.363281 184.582031 173.414062 184.34375 173.570312 184.183594 C 173.730469 184.023438 173.964844 183.964844 174.175781 184.039062 C 174.972656 184.300781 177.277344 184.921875 178.347656 184.59375 C 180.539062 183.929688 182.078125 180.488281 182.683594 174.90625 C 182.71875 174.609375 182.96875 174.382812 183.265625 174.382812 C 183.566406 174.382812 183.816406 174.609375 183.847656 174.90625 C 184.457031 180.488281 185.996094 183.929688 188.1875 184.59375 C 189.261719 184.921875 191.558594 184.300781 192.355469 184.039062 C 192.570312 183.964844 192.800781 184.023438 192.960938 184.183594 C 193.117188 184.34375 193.171875 184.582031 193.089844 184.792969 C 191.714844 188.601562 193.914062 192.78125 195.832031 194.40625 C 196.792969 195.222656 197.683594 194.929688 199.171875 194.339844 C 200.195312 193.933594 201.355469 193.476562 202.644531 193.632812 C 203.070312 193.6875 203.402344 193.734375 203.679688 193.769531 C 204.851562 193.933594 204.878906 193.9375 206.582031 193.558594 C 210.082031 192.78125 211.816406 189.425781 211.832031 189.390625 C 211.953125 189.15625 212.214844 189.03125 212.472656 189.082031 C 212.734375 189.136719 212.921875 189.355469 212.941406 189.621094 C 213.070312 191.675781 212.050781 194.089844 212.007812 194.195312 L 211.921875 194.339844 C 211.882812 194.382812 210.953125 195.554688 211.574219 196.832031 C 212.265625 198.246094 212.371094 199.339844 212.433594 199.929688 C 212.445312 200.050781 212.453125 200.152344 212.46875 200.230469 C 212.503906 200.433594 212.472656 200.675781 212.398438 201.164062 C 212.269531 201.996094 212.003906 203.738281 212.683594 204.199219 C 213.574219 204.804688 215.382812 204.527344 216.003906 204.367188 C 216.320312 204.289062 216.636719 204.476562 216.714844 204.789062 C 216.796875 205.105469 216.609375 205.421875 216.296875 205.503906 C 213.378906 206.261719 209.6875 212.992188 210.484375 217.582031 C 211.210938 221.761719 215.957031 223.1875 216.523438 223.34375 L 216.582031 223.359375 C 216.890625 223.445312 217.074219 223.761719 216.992188 224.078125 C 216.910156 224.386719 216.589844 224.574219 216.28125 224.492188 L 216.207031 224.476562 C 213.988281 223.894531 210.238281 224.402344 209.308594 226.527344 C 208.964844 227.320312 209.9375 228.363281 209.945312 228.375 C 210.136719 228.5625 210.171875 228.859375 210.027344 229.09375 C 209.890625 229.320312 209.605469 229.425781 209.351562 229.34375 C 204.972656 227.921875 201.652344 229.058594 200.296875 230.816406 C 199.023438 232.472656 198.480469 233.9375 198.691406 235.179688 C 198.894531 236.363281 199.734375 236.917969 199.769531 236.941406 C 199.972656 237.070312 200.074219 237.320312 200.027344 237.558594 C 199.976562 237.792969 199.78125 237.976562 199.542969 238.015625 C 196.769531 238.441406 193.214844 237.640625 188.972656 235.632812 C 187.855469 235.105469 186.667969 234.734375 185.445312 234.53125 C 185.121094 240.78125 182.675781 245.34375 178.164062 248.097656 C 177.851562 248.289062 177.492188 248.386719 177.128906 248.386719 " fill-opacity="1" fill-rule="nonzero"/><path fill="#7f0808" d="M 169.320312 272.105469 C 169.550781 272.105469 169.664062 272.265625 169.664062 272.589844 C 169.664062 272.917969 169.601562 273.183594 169.484375 273.394531 C 169.367188 273.605469 169.226562 273.800781 169.074219 273.972656 C 168.917969 274.148438 168.71875 274.3125 168.484375 274.46875 C 167.921875 274.832031 167.335938 275.015625 166.71875 275.015625 C 166.101562 275.015625 165.613281 274.941406 165.25 274.789062 C 164.890625 274.640625 164.574219 274.410156 164.3125 274.113281 C 163.742188 273.476562 163.457031 272.605469 163.457031 271.484375 C 163.457031 270.296875 163.6875 268.839844 164.148438 267.121094 C 164.605469 265.40625 165.042969 263.9375 165.46875 262.710938 C 165.894531 261.488281 166.332031 260.324219 166.78125 259.21875 L 168.015625 256.070312 C 166.664062 257.289062 164.949219 259.847656 162.867188 263.75 L 159.550781 270.042969 C 157.773438 273.359375 156.507812 275.015625 155.75 275.015625 C 155.003906 275.015625 154.5 274.699219 154.222656 274.054688 C 153.976562 273.441406 153.851562 272.398438 153.851562 270.929688 C 153.851562 269.457031 153.96875 268.050781 154.203125 266.695312 C 154.4375 265.347656 154.730469 264.023438 155.085938 262.734375 C 155.710938 260.453125 156.515625 258.191406 157.503906 255.945312 C 156.546875 256.484375 155.476562 257.691406 154.304688 259.5625 C 153.410156 261.054688 152.78125 262.144531 152.410156 262.832031 L 148.871094 269.359375 C 147.398438 272.039062 146.214844 273.695312 145.316406 274.328125 C 144.667969 274.789062 143.96875 275.015625 143.21875 275.015625 C 142.578125 275.015625 142.117188 274.816406 141.832031 274.410156 C 141.722656 274.246094 141.664062 274.097656 141.664062 273.957031 C 141.664062 273.820312 141.707031 273.738281 141.789062 273.710938 C 142.359375 273.558594 142.757812 273.390625 142.992188 273.222656 C 143.222656 273.054688 143.457031 272.882812 143.683594 272.703125 C 143.914062 272.523438 144.25 272.144531 144.683594 271.5625 C 145.125 270.976562 145.597656 270.28125 146.113281 269.457031 C 146.625 268.640625 147.160156 267.722656 147.71875 266.703125 L 149.460938 263.488281 C 151.070312 260.378906 152.753906 257.878906 154.511719 256.003906 C 155.132812 255.335938 155.75 254.816406 156.351562 254.449219 C 156.957031 254.019531 157.65625 253.730469 158.449219 253.585938 C 158.671875 253.539062 158.875 253.511719 159.058594 253.511719 C 159.25 253.511719 159.460938 253.542969 159.691406 253.597656 C 159.925781 253.652344 160.128906 253.738281 160.304688 253.855469 C 160.707031 254.132812 160.824219 254.5 160.660156 254.957031 C 160.585938 255.234375 160.445312 255.644531 160.234375 256.195312 L 159.492188 258.160156 C 157.761719 262.941406 156.816406 267.289062 156.652344 271.210938 C 157.136719 270.378906 157.628906 269.464844 158.121094 268.476562 L 159.671875 265.414062 L 161.308594 262.292969 C 163.824219 257.625 166.160156 254.949219 168.316406 254.273438 C 168.765625 254.125 169.140625 254.050781 169.441406 254.050781 C 169.746094 254.050781 169.980469 254.089844 170.15625 254.167969 C 170.332031 254.246094 170.484375 254.34375 170.625 254.460938 C 170.941406 254.753906 171.054688 255.058594 170.953125 255.363281 C 170.851562 255.671875 170.722656 256.058594 170.554688 256.539062 L 168.5625 262.347656 L 167.851562 264.628906 C 167.066406 267.269531 166.597656 269.292969 166.453125 270.703125 C 166.398438 271.300781 166.460938 271.765625 166.652344 272.097656 C 166.835938 272.429688 167.097656 272.597656 167.425781 272.597656 C 167.753906 272.597656 168.011719 272.574219 168.203125 272.523438 C 168.386719 272.472656 168.550781 272.417969 168.6875 272.351562 L 169.046875 272.1875 C 169.144531 272.128906 169.238281 272.105469 169.320312 272.105469 " fill-opacity="1" fill-rule="nonzero"/><path fill="#7f0808" d="M 174.796875 271.277344 C 174.796875 272.378906 175.148438 272.925781 175.851562 272.925781 C 176.390625 272.925781 177.054688 272.46875 177.839844 271.554688 C 178.996094 270.210938 180.015625 268.394531 180.902344 266.113281 C 181.183594 265.398438 181.421875 264.683594 181.617188 263.972656 C 181.582031 263.347656 181.320312 262.890625 180.835938 262.597656 C 180.671875 262.5 180.421875 262.449219 180.097656 262.449219 C 179.773438 262.449219 179.394531 262.566406 178.957031 262.800781 C 178.527344 263.042969 178.105469 263.367188 177.699219 263.777344 C 177.289062 264.191406 176.910156 264.675781 176.558594 265.242188 C 176.207031 265.804688 175.898438 266.417969 175.632812 267.078125 C 175.074219 268.488281 174.796875 269.886719 174.796875 271.277344 Z M 182.410156 271.226562 C 182.410156 272.070312 182.710938 272.492188 183.304688 272.492188 C 183.71875 272.492188 184.058594 272.421875 184.324219 272.296875 C 184.597656 272.167969 184.773438 272.105469 184.867188 272.105469 C 185.0625 272.105469 185.15625 272.207031 185.15625 272.410156 C 185.15625 273.195312 184.746094 273.871094 183.921875 274.441406 C 183.054688 275.039062 182.164062 275.179688 181.257812 274.878906 C 180.664062 274.667969 180.222656 274.214844 179.941406 273.519531 C 179.804688 273.164062 179.734375 272.839844 179.734375 272.542969 C 179.734375 272.070312 179.78125 271.566406 179.875 271.03125 C 179.023438 272.773438 177.964844 273.972656 176.703125 274.632812 C 176.199219 274.890625 175.664062 275.015625 175.097656 275.015625 C 174.527344 275.015625 174.039062 274.898438 173.621094 274.664062 C 173.207031 274.433594 172.851562 274.113281 172.558594 273.695312 C 171.964844 272.839844 171.691406 271.757812 171.75 270.457031 C 171.804688 268.824219 172.285156 267.226562 173.1875 265.660156 C 174.023438 264.195312 175.074219 263 176.347656 262.074219 C 177.621094 261.132812 178.808594 260.660156 179.914062 260.660156 C 181.019531 260.660156 181.914062 261.167969 182.589844 262.1875 C 183.222656 261.167969 183.777344 260.660156 184.265625 260.660156 C 184.785156 260.660156 185.179688 260.757812 185.441406 260.949219 C 185.945312 261.3125 186.125 261.636719 185.980469 261.90625 C 183.683594 266.617188 182.503906 269.550781 182.4375 270.703125 C 182.421875 270.867188 182.410156 271.042969 182.410156 271.226562 " fill-opacity="1" fill-rule="nonzero"/><path fill="#7f0808" d="M 191.613281 267.714844 C 191.28125 268.359375 191.007812 269.003906 190.804688 269.644531 C 190.597656 270.285156 190.496094 270.871094 190.496094 271.402344 C 190.496094 271.933594 190.609375 272.375 190.835938 272.714844 C 191.066406 273.058594 191.40625 273.230469 191.851562 273.230469 C 192.300781 273.230469 192.75 273.109375 193.191406 272.867188 C 193.632812 272.625 194.0625 272.296875 194.480469 271.882812 C 194.894531 271.472656 195.285156 270.988281 195.648438 270.433594 C 196.011719 269.878906 196.320312 269.292969 196.589844 268.671875 C 197.164062 267.3125 197.453125 266.027344 197.453125 264.808594 C 197.453125 264.152344 197.363281 263.636719 197.191406 263.269531 C 197.015625 262.90625 196.75 262.71875 196.390625 262.71875 C 196.027344 262.71875 195.648438 262.859375 195.257812 263.136719 C 194.863281 263.417969 194.453125 263.789062 194.019531 264.253906 C 193.589844 264.714844 193.167969 265.246094 192.746094 265.847656 C 192.324219 266.445312 191.949219 267.070312 191.613281 267.714844 Z M 189.492188 273.574219 C 189.476562 273.710938 189.277344 274.4375 188.898438 275.746094 C 188.515625 277.054688 188.195312 278.097656 187.945312 278.863281 C 187.363281 280.585938 186.890625 281.65625 186.515625 282.082031 C 186.214844 282.410156 185.847656 282.574219 185.417969 282.574219 C 184.894531 282.574219 184.496094 282.316406 184.226562 281.804688 C 184.140625 281.65625 184.097656 281.496094 184.097656 281.316406 C 184.097656 281.136719 184.234375 280.75 184.511719 280.15625 C 185.230469 278.644531 186.199219 275.667969 187.40625 271.226562 C 187.890625 269.464844 188.210938 268.269531 188.367188 267.640625 L 188.808594 265.921875 C 189.089844 264.789062 189.257812 264.015625 189.308594 263.605469 C 189.359375 263.199219 189.332031 262.914062 189.234375 262.742188 C 189.132812 262.574219 189.019531 262.445312 188.890625 262.355469 C 188.761719 262.269531 188.644531 262.195312 188.53125 262.128906 C 188.421875 262.066406 188.375 261.949219 188.394531 261.777344 C 188.414062 261.609375 188.488281 261.453125 188.621094 261.3125 C 188.753906 261.171875 188.921875 261.050781 189.121094 260.949219 C 189.535156 260.757812 189.949219 260.660156 190.367188 260.660156 C 190.78125 260.660156 191.109375 260.710938 191.34375 260.808594 C 191.582031 260.910156 191.78125 261.050781 191.933594 261.222656 C 192.265625 261.578125 192.414062 261.929688 192.375 262.269531 C 192.285156 262.972656 192.183594 263.578125 192.074219 264.078125 C 193.671875 261.800781 195.335938 260.660156 197.054688 260.660156 C 198.617188 260.660156 199.664062 261.472656 200.195312 263.09375 C 200.378906 263.660156 200.472656 264.351562 200.472656 265.167969 C 200.472656 265.980469 200.347656 266.800781 200.101562 267.621094 C 199.855469 268.4375 199.519531 269.214844 199.101562 269.949219 C 198.679688 270.679688 198.1875 271.355469 197.632812 271.972656 C 197.070312 272.589844 196.480469 273.132812 195.859375 273.589844 C 194.542969 274.539062 193.296875 275.015625 192.125 275.015625 C 190.957031 275.015625 190.078125 274.535156 189.492188 273.574219 " fill-opacity="1" fill-rule="nonzero"/><path fill="#7f0808" d="M 203.1875 274.328125 C 202.957031 274.09375 202.777344 273.789062 202.632812 273.417969 C 202.492188 273.046875 202.417969 272.617188 202.417969 272.125 C 202.417969 271.636719 202.535156 270.976562 202.753906 270.15625 C 202.980469 269.328125 203.265625 268.390625 203.617188 267.335938 L 204.765625 263.914062 C 206.402344 259.152344 207.351562 255.46875 207.605469 252.871094 C 207.6875 252.101562 208.0625 251.714844 208.730469 251.714844 C 209.152344 251.714844 209.5 251.816406 209.773438 252.019531 C 210.308594 252.421875 210.5625 252.871094 210.542969 253.363281 C 210.523438 253.855469 210.4375 254.460938 210.28125 255.167969 C 210.128906 255.882812 209.925781 256.652344 209.679688 257.496094 C 209.433594 258.332031 209.148438 259.21875 208.828125 260.152344 L 206.933594 265.730469 C 205.84375 268.898438 205.300781 270.945312 205.300781 271.871094 C 205.300781 272.367188 205.503906 272.613281 205.90625 272.613281 C 206.292969 272.613281 206.636719 272.53125 206.957031 272.367188 C 207.269531 272.203125 207.472656 272.121094 207.566406 272.121094 C 207.761719 272.121094 207.851562 272.214844 207.851562 272.410156 C 207.851562 273.222656 207.4375 273.902344 206.605469 274.453125 C 206.046875 274.832031 205.539062 275.015625 205.078125 275.015625 C 204.613281 275.015625 204.242188 274.960938 203.957031 274.851562 C 203.671875 274.746094 203.414062 274.570312 203.1875 274.328125 " fill-opacity="1" fill-rule="nonzero"/><path fill="#7f0808" d="M 218.515625 262.488281 C 217.554688 262.488281 216.632812 263.144531 215.746094 264.464844 C 214.996094 265.601562 214.390625 266.949219 213.933594 268.503906 C 215.460938 268.347656 216.789062 267.746094 217.914062 266.695312 C 218.949219 265.703125 219.464844 264.753906 219.464844 263.847656 C 219.464844 262.941406 219.148438 262.488281 218.515625 262.488281 Z M 210.503906 270.070312 C 210.539062 269.273438 210.671875 268.511719 210.898438 267.785156 C 211.128906 267.054688 211.4375 266.351562 211.820312 265.667969 C 212.203125 264.984375 212.652344 264.339844 213.171875 263.726562 C 213.691406 263.121094 214.25 262.585938 214.855469 262.128906 C 216.164062 261.148438 217.484375 260.660156 218.820312 260.660156 C 220.386719 260.660156 221.429688 261.308594 221.949219 262.597656 C 222.132812 263.035156 222.21875 263.558594 222.210938 264.15625 C 222.199219 264.753906 222.085938 265.308594 221.867188 265.816406 C 221.644531 266.324219 221.34375 266.789062 220.953125 267.203125 C 220.5625 267.625 220.101562 267.996094 219.566406 268.328125 C 219.03125 268.65625 218.449219 268.9375 217.816406 269.164062 C 216.519531 269.621094 215.125 269.863281 213.648438 269.875 C 213.609375 270.007812 213.585938 270.199219 213.574219 270.457031 C 213.570312 270.714844 213.597656 271 213.65625 271.316406 C 213.722656 271.628906 213.832031 271.910156 213.992188 272.160156 C 214.320312 272.710938 214.792969 272.984375 215.414062 272.984375 C 216.476562 272.984375 217.511719 272.671875 218.515625 272.046875 C 218.875 271.839844 219.164062 271.621094 219.386719 271.398438 C 219.613281 271.171875 219.804688 271.0625 219.96875 271.0625 C 220.136719 271.0625 220.28125 271.15625 220.402344 271.355469 C 220.527344 271.554688 220.589844 271.777344 220.589844 272.023438 C 220.589844 272.507812 220.453125 272.925781 220.179688 273.285156 C 219.023438 274.441406 217.308594 275.015625 215.03125 275.015625 C 213.6875 275.015625 212.609375 274.617188 211.792969 273.808594 C 210.878906 272.890625 210.445312 271.648438 210.503906 270.070312 " fill-opacity="1" fill-rule="nonzero"/><path fill="#7f0808" d="M 149.648438 298.546875 L 149.523438 299.601562 C 149.523438 300.714844 149.894531 301.46875 150.636719 301.871094 C 150.890625 302.007812 151.199219 302.078125 151.554688 302.078125 C 151.910156 302.078125 152.234375 302.015625 152.515625 301.890625 C 152.796875 301.765625 153.035156 301.605469 153.214844 301.40625 C 153.597656 300.992188 153.789062 300.515625 153.789062 299.972656 C 153.789062 299.433594 153.679688 298.945312 153.460938 298.503906 C 153.246094 298.0625 152.96875 297.625 152.640625 297.183594 L 151.539062 295.839844 C 150.652344 294.777344 150.058594 293.808594 149.757812 292.933594 C 149.453125 292.058594 149.304688 291.253906 149.304688 290.519531 C 149.304688 289.789062 149.394531 289.09375 149.570312 288.441406 C 149.75 287.785156 150 287.164062 150.320312 286.574219 C 150.640625 285.980469 151.027344 285.4375 151.472656 284.945312 C 151.917969 284.449219 152.417969 284.023438 152.96875 283.667969 C 154.113281 282.894531 155.25 282.511719 156.371094 282.511719 C 157.5 282.511719 158.375 282.667969 159.007812 282.976562 C 159.640625 283.289062 160.144531 283.683594 160.527344 284.160156 C 161.242188 285.058594 161.601562 286.144531 161.601562 287.417969 C 161.601562 288.597656 161.269531 289.710938 160.601562 290.757812 C 159.984375 291.707031 159.300781 292.3125 158.539062 292.570312 C 158.375 292.652344 158.148438 292.691406 157.859375 292.691406 C 157.574219 292.691406 157.332031 292.648438 157.132812 292.5625 C 156.9375 292.476562 156.761719 292.359375 156.621094 292.210938 C 156.296875 291.890625 156.136719 291.542969 156.136719 291.167969 C 156.136719 290.910156 156.214844 290.742188 156.371094 290.660156 C 157.066406 290.285156 157.671875 289.738281 158.183594 289.023438 C 158.742188 288.246094 159.035156 287.46875 159.058594 286.695312 C 159.089844 285.921875 158.902344 285.347656 158.507812 284.976562 C 158.105469 284.605469 157.582031 284.421875 156.921875 284.421875 C 156.261719 284.421875 155.667969 284.570312 155.136719 284.867188 C 154.605469 285.167969 154.148438 285.566406 153.765625 286.070312 C 152.941406 287.152344 152.53125 288.429688 152.53125 289.902344 C 152.53125 290.882812 152.871094 291.917969 153.542969 293.011719 C 153.828125 293.476562 154.136719 293.9375 154.46875 294.390625 C 154.804688 294.84375 155.121094 295.304688 155.414062 295.78125 C 156.078125 296.890625 156.414062 297.886719 156.414062 298.765625 C 156.414062 299.644531 156.257812 300.386719 155.941406 300.992188 C 155.625 301.597656 155.207031 302.125 154.683594 302.570312 C 153.558594 303.542969 152.277344 304.027344 150.839844 304.027344 C 149.484375 304.027344 148.441406 303.625 147.714844 302.816406 C 147.128906 302.171875 146.835938 301.460938 146.835938 300.703125 C 146.835938 299.878906 147.066406 299.183594 147.535156 298.613281 C 147.894531 298.183594 148.234375 297.929688 148.5625 297.847656 C 149.285156 297.652344 149.648438 297.886719 149.648438 298.546875 " fill-opacity="1" fill-rule="nonzero"/><path fill="#7f0808" d="M 160.476562 302.554688 C 160.363281 302.257812 160.3125 301.910156 160.3125 301.519531 C 160.3125 301.132812 160.375 300.695312 160.511719 300.21875 C 160.644531 299.734375 160.8125 299.234375 161.023438 298.710938 C 161.234375 298.1875 161.464844 297.652344 161.710938 297.101562 L 162.449219 295.453125 C 163.40625 293.339844 163.753906 292.085938 163.507812 291.691406 C 163.398438 291.515625 163.195312 291.339844 162.890625 291.167969 C 162.777344 291.105469 162.726562 290.992188 162.726562 290.832031 C 162.726562 290.671875 162.792969 290.515625 162.925781 290.371094 C 163.058594 290.222656 163.230469 290.09375 163.441406 289.984375 C 163.886719 289.777344 164.335938 289.667969 164.785156 289.667969 C 165.234375 289.667969 165.574219 289.714844 165.804688 289.8125 C 166.039062 289.910156 166.230469 290.03125 166.375 290.175781 C 166.675781 290.480469 166.828125 290.8125 166.828125 291.183594 C 166.828125 291.546875 166.769531 291.957031 166.652344 292.410156 C 166.53125 292.863281 166.375 293.355469 166.183594 293.890625 C 165.992188 294.417969 165.78125 294.96875 165.550781 295.535156 C 164.921875 297.019531 164.496094 298 164.277344 298.476562 L 163.769531 299.535156 C 163.488281 300.167969 163.34375 300.609375 163.34375 300.867188 C 163.34375 301.125 163.382812 301.304688 163.464844 301.410156 C 163.546875 301.515625 163.699219 301.570312 163.910156 301.570312 C 164.128906 301.570312 164.367188 301.488281 164.625 301.324219 C 164.886719 301.15625 165.167969 300.9375 165.46875 300.660156 C 165.773438 300.386719 166.082031 300.070312 166.414062 299.707031 C 166.734375 299.34375 167.050781 298.96875 167.363281 298.570312 C 168.175781 297.566406 168.78125 296.703125 169.175781 295.976562 C 171.152344 292.332031 172.199219 290.425781 172.316406 290.261719 C 172.621094 289.867188 172.925781 289.667969 173.230469 289.667969 C 173.535156 289.667969 173.804688 289.707031 174.03125 289.773438 C 174.261719 289.839844 174.457031 289.941406 174.621094 290.070312 C 174.988281 290.335938 175.101562 290.632812 174.960938 290.960938 C 174.816406 291.292969 174.648438 291.746094 174.445312 292.324219 C 172.707031 297.371094 171.578125 300.515625 171.0625 301.757812 C 170.546875 303.007812 170.09375 304.007812 169.710938 304.761719 C 169.328125 305.519531 168.878906 306.285156 168.359375 307.050781 C 167.839844 307.820312 167.292969 308.519531 166.707031 309.152344 C 165.371094 310.582031 164.117188 311.34375 162.945312 311.449219 C 162.496094 311.484375 162.140625 311.417969 161.875 311.253906 C 161.417969 310.980469 161.1875 310.71875 161.1875 310.472656 C 161.1875 310.226562 161.398438 310.054688 161.816406 309.957031 C 162.230469 309.859375 162.65625 309.667969 163.105469 309.378906 C 163.546875 309.089844 163.976562 308.753906 164.386719 308.367188 C 165.59375 307.214844 166.53125 305.960938 167.199219 304.605469 C 167.765625 303.414062 168.222656 302.289062 168.570312 301.226562 L 169.640625 297.953125 C 169.378906 298.273438 169.085938 298.652344 168.761719 299.082031 L 167.777344 300.398438 C 166.917969 301.492188 166.203125 302.261719 165.632812 302.722656 C 164.554688 303.59375 163.589844 304.027344 162.738281 304.027344 C 161.605469 304.027344 160.851562 303.539062 160.476562 302.554688 " fill-opacity="1" fill-rule="nonzero"/><path fill="#7f0808" d="M 176.007812 303.5625 C 175.824219 303.425781 175.679688 303.273438 175.570312 303.101562 C 175.460938 302.933594 175.402344 302.785156 175.394531 302.660156 C 175.382812 302.535156 175.40625 302.386719 175.46875 302.210938 C 175.527344 302.027344 175.609375 301.8125 175.707031 301.554688 C 177.574219 296.957031 178.507812 293.867188 178.507812 292.296875 C 178.480469 291.855469 178.328125 291.542969 178.054688 291.359375 L 177.78125 291.167969 C 177.699219 291.105469 177.65625 290.992188 177.648438 290.832031 C 177.644531 290.671875 177.703125 290.515625 177.824219 290.371094 C 177.941406 290.222656 178.09375 290.09375 178.289062 289.984375 C 178.679688 289.777344 179.085938 289.667969 179.5 289.667969 C 179.917969 289.667969 180.246094 289.714844 180.476562 289.808594 C 180.710938 289.898438 180.910156 290.023438 181.074219 290.175781 C 181.421875 290.507812 181.597656 290.855469 181.601562 291.222656 C 181.605469 291.589844 181.566406 291.957031 181.476562 292.335938 C 181.390625 292.714844 181.289062 293.078125 181.171875 293.441406 C 181.050781 293.804688 180.929688 294.148438 180.8125 294.472656 C 180.695312 294.796875 180.617188 295.039062 180.582031 295.191406 C 180.503906 295.515625 180.480469 295.714844 180.5 295.800781 C 180.714844 295.605469 180.847656 295.417969 180.894531 295.234375 L 181.429688 294.21875 C 182.621094 292.074219 183.78125 290.652344 184.917969 289.960938 C 185.246094 289.765625 185.640625 289.667969 186.105469 289.667969 C 186.566406 289.667969 186.9375 289.835938 187.222656 290.15625 C 187.503906 290.480469 187.652344 290.84375 187.667969 291.238281 C 187.683594 291.628906 187.652344 291.957031 187.585938 292.21875 C 187.515625 292.480469 187.414062 292.722656 187.277344 292.953125 C 186.976562 293.46875 186.609375 293.722656 186.179688 293.722656 C 186.0625 293.722656 185.949219 293.683594 185.851562 293.601562 L 185.546875 293.339844 C 185.246094 293.070312 184.953125 292.941406 184.675781 292.941406 C 184.394531 292.941406 184.058594 293.125 183.660156 293.488281 C 183.261719 293.859375 182.847656 294.328125 182.421875 294.90625 C 180.972656 296.820312 179.792969 298.960938 178.875 301.335938 L 178.273438 302.929688 C 178.121094 303.320312 177.980469 303.605469 177.863281 303.773438 C 177.746094 303.945312 177.566406 304.027344 177.332031 304.027344 C 177.101562 304.027344 176.867188 303.984375 176.632812 303.898438 C 176.402344 303.8125 176.195312 303.699219 176.007812 303.5625 " fill-opacity="1" fill-rule="nonzero"/><path fill="#7f0808" d="M 200.21875 301.183594 C 200.429688 301.183594 200.53125 301.289062 200.53125 301.496094 C 200.53125 302.296875 200.140625 302.96875 199.355469 303.507812 C 198.820312 303.855469 198.199219 304.027344 197.484375 304.027344 C 196.898438 304.027344 196.453125 303.890625 196.140625 303.613281 C 195.585938 303.121094 195.304688 302.515625 195.304688 301.800781 C 195.304688 300.894531 195.683594 299.503906 196.441406 297.636719 C 195.035156 299.546875 194.046875 300.8125 193.480469 301.4375 C 192.914062 302.066406 192.417969 302.554688 192 302.898438 C 191.082031 303.65625 190.253906 304.027344 189.515625 304.027344 C 188.378906 304.027344 187.625 303.539062 187.25 302.554688 C 187.140625 302.257812 187.082031 301.910156 187.082031 301.519531 C 187.082031 301.132812 187.152344 300.695312 187.28125 300.21875 C 187.414062 299.734375 187.585938 299.234375 187.796875 298.710938 C 188.007812 298.1875 188.238281 297.652344 188.484375 297.101562 L 189.226562 295.453125 C 190.175781 293.339844 190.53125 292.085938 190.285156 291.691406 C 190.171875 291.515625 189.964844 291.339844 189.664062 291.167969 C 189.554688 291.105469 189.5 290.992188 189.5 290.832031 C 189.5 290.671875 189.566406 290.515625 189.699219 290.371094 C 189.828125 290.222656 190 290.09375 190.210938 289.984375 C 190.664062 289.777344 191.109375 289.667969 191.558594 289.667969 C 192.003906 289.667969 192.347656 289.714844 192.582031 289.8125 C 192.8125 289.910156 193.003906 290.03125 193.148438 290.175781 C 193.453125 290.480469 193.601562 290.8125 193.601562 291.183594 C 193.601562 291.546875 193.546875 291.957031 193.421875 292.410156 C 193.304688 292.863281 193.148438 293.355469 192.960938 293.890625 C 192.765625 294.417969 192.554688 294.96875 192.328125 295.535156 C 191.695312 297.019531 191.269531 298 191.050781 298.476562 L 190.542969 299.535156 C 190.257812 300.167969 190.121094 300.609375 190.121094 300.867188 C 190.121094 301.125 190.160156 301.304688 190.242188 301.410156 C 190.324219 301.515625 190.472656 301.570312 190.6875 301.570312 C 190.902344 301.570312 191.152344 301.46875 191.433594 301.265625 C 191.71875 301.066406 192.03125 300.796875 192.371094 300.457031 C 192.707031 300.117188 193.058594 299.726562 193.421875 299.28125 C 193.792969 298.835938 194.144531 298.375 194.496094 297.898438 C 195.179688 296.964844 195.683594 296.214844 196.003906 295.644531 C 197.941406 292.210938 198.980469 290.417969 199.109375 290.261719 C 199.398438 289.867188 199.695312 289.667969 200.003906 289.667969 C 200.3125 289.667969 200.578125 289.707031 200.808594 289.773438 C 201.035156 289.839844 201.234375 289.941406 201.398438 290.070312 C 201.785156 290.351562 201.90625 290.636719 201.769531 290.921875 C 199.535156 295.582031 198.332031 298.515625 198.160156 299.714844 C 198.113281 300.125 198.089844 300.410156 198.089844 300.5625 C 198.089844 301.261719 198.300781 301.609375 198.722656 301.609375 C 199.113281 301.609375 199.441406 301.539062 199.695312 301.398438 C 199.953125 301.253906 200.125 301.183594 200.21875 301.183594 " fill-opacity="1" fill-rule="nonzero"/><path fill="#7f0808" d="M 207.539062 296.726562 C 207.207031 297.371094 206.933594 298.015625 206.730469 298.65625 C 206.523438 299.296875 206.421875 299.882812 206.421875 300.414062 C 206.421875 300.945312 206.535156 301.382812 206.761719 301.726562 C 206.992188 302.070312 207.332031 302.242188 207.777344 302.242188 C 208.226562 302.242188 208.675781 302.121094 209.117188 301.875 C 209.558594 301.636719 209.988281 301.308594 210.40625 300.894531 C 210.820312 300.480469 211.210938 300 211.574219 299.445312 C 211.9375 298.894531 212.246094 298.304688 212.515625 297.679688 C 213.089844 296.324219 213.378906 295.039062 213.378906 293.820312 C 213.378906 293.160156 213.289062 292.644531 213.117188 292.28125 C 212.945312 291.914062 212.675781 291.730469 212.316406 291.730469 C 211.953125 291.730469 211.574219 291.875 211.183594 292.148438 C 210.789062 292.429688 210.378906 292.800781 209.945312 293.265625 C 209.519531 293.726562 209.09375 294.253906 208.671875 294.855469 C 208.25 295.457031 207.875 296.078125 207.539062 296.726562 Z M 205.421875 302.585938 C 205.402344 302.722656 205.203125 303.445312 204.824219 304.757812 C 204.441406 306.066406 204.125 307.105469 203.867188 307.875 C 203.289062 309.59375 202.816406 310.667969 202.441406 311.089844 C 202.136719 311.417969 201.773438 311.582031 201.34375 311.582031 C 200.820312 311.582031 200.421875 311.328125 200.152344 310.816406 C 200.070312 310.667969 200.027344 310.503906 200.027344 310.328125 C 200.027344 310.148438 200.160156 309.761719 200.4375 309.167969 C 201.15625 307.65625 202.125 304.675781 203.332031 300.234375 C 203.816406 298.476562 204.136719 297.28125 204.292969 296.648438 L 204.734375 294.929688 C 205.015625 293.796875 205.183594 293.023438 205.234375 292.617188 C 205.285156 292.210938 205.257812 291.917969 205.160156 291.75 C 205.058594 291.582031 204.945312 291.453125 204.816406 291.367188 C 204.6875 291.28125 204.570312 291.203125 204.460938 291.140625 C 204.347656 291.074219 204.300781 290.960938 204.320312 290.789062 C 204.335938 290.621094 204.417969 290.464844 204.546875 290.320312 C 204.679688 290.179688 204.84375 290.058594 205.046875 289.960938 C 205.460938 289.765625 205.875 289.667969 206.292969 289.667969 C 206.707031 289.667969 207.035156 289.71875 207.269531 289.820312 C 207.511719 289.921875 207.707031 290.058594 207.859375 290.234375 C 208.191406 290.589844 208.339844 290.941406 208.300781 291.277344 C 208.210938 291.984375 208.109375 292.589844 208 293.09375 C 209.601562 290.8125 211.261719 289.667969 212.980469 289.667969 C 214.542969 289.667969 215.589844 290.480469 216.125 292.101562 C 216.304688 292.671875 216.398438 293.359375 216.398438 294.175781 C 216.398438 294.992188 216.273438 295.8125 216.027344 296.628906 C 215.78125 297.449219 215.445312 298.226562 215.027344 298.957031 C 214.605469 299.691406 214.117188 300.367188 213.558594 300.988281 C 212.996094 301.601562 212.40625 302.140625 211.785156 302.597656 C 210.46875 303.550781 209.226562 304.027344 208.054688 304.027344 C 206.882812 304.027344 206.007812 303.546875 205.421875 302.585938 " fill-opacity="1" fill-rule="nonzero"/></svg>