<svg xmlns="http://www.w3.org/2000/svg" xmlns:xlink="http://www.w3.org/1999/xlink" width="500" zoomAndPan="magnify" viewBox="0 0 375 374.999991" height="500" preserveAspectRatio="xMidYMid meet" version="1.0"><defs><clipPath id="9eef6b27a2"><path d="M 30.03125 48 L 352 48 L 352 366 L 30.03125 366 Z M 30.03125 48 " clip-rule="nonzero"/></clipPath><clipPath id="d091d5ff88"><path d="M 88 7.5 L 298 7.5 L 298 163 L 88 163 Z M 88 7.5 " clip-rule="nonzero"/></clipPath></defs><path fill="#ff2273" d="M 350.492188 82.632812 L 287.894531 49.511719 C 287.792969 49.445312 287.6875 49.386719 287.578125 49.34375 L 287.570312 49.339844 C 286.996094 49.101562 286.332031 49.078125 285.617188 49.359375 L 35.09375 148.640625 C 33.027344 149.457031 31.394531 152.378906 31.441406 155.160156 L 34.488281 328.054688 C 34.515625 329.75 35.171875 330.992188 36.144531 331.527344 L 36.136719 331.53125 L 36.191406 331.5625 C 36.203125 331.566406 36.210938 331.574219 36.21875 331.578125 L 98.507812 366.5625 Z M 350.492188 82.632812 " fill-opacity="1" fill-rule="nonzero"/><path fill="#000000" d="M 47.058594 169.082031 C 48.40625 169.671875 50.292969 168.125 51.679688 167.949219 C 53.140625 167.761719 54.753906 167.90625 55.777344 169.09375 C 57.484375 171.070312 57.328125 178.183594 60.988281 177.53125 C 61.640625 177.414062 62.28125 177.15625 62.917969 176.980469 C 63.574219 176.804688 64.941406 176.207031 65.59375 176.363281 C 68.402344 177.015625 69.957031 180.613281 71.25 182.855469 C 74.695312 188.820312 77.988281 180.792969 81.980469 184.136719 C 83.621094 185.503906 83.8125 187.140625 84.820312 188.917969 C 87.035156 192.824219 88.539062 189.375 91.109375 189.375 C 97.609375 189.375 97.433594 201.230469 105.882812 194.046875 C 106.554688 193.472656 107.417969 193.949219 107.609375 194.574219 C 112 193.933594 117.539062 192.40625 119.246094 188.421875 C 120.902344 184.554688 119.085938 179.933594 114.792969 179.144531 C 113.292969 178.867188 111.585938 178.820312 110.160156 178.253906 C 108.800781 177.710938 105.730469 176.101562 106.882812 174.136719 C 108.40625 171.53125 105.867188 172.089844 103.699219 172.261719 C 101.476562 172.433594 99.730469 172.550781 97.671875 171.695312 C 97.09375 171.457031 96.671875 170.808594 97.0625 170.195312 C 100.347656 165.058594 89.945312 167.566406 87.605469 167.257812 C 83.933594 166.777344 84.386719 164.21875 84.175781 161.453125 C 83.835938 156.929688 73.710938 163.824219 72.308594 158.714844 C 71.675781 156.40625 73.539062 153.070312 69.042969 153.40625 C 66.511719 153.597656 64.085938 154.023438 61.628906 153.234375 C 61.132812 153.074219 60.71875 152.519531 60.917969 151.980469 C 62.003906 149.007812 59.722656 148.882812 57.457031 149.144531 C 56.363281 149.273438 55.25 149.421875 54.148438 149.441406 C 52.898438 149.464844 52.644531 149.078125 52.957031 147.835938 C 53.449219 145.886719 54.992188 143.0625 54.375 141 L 35.09375 148.640625 C 33.027344 149.457031 31.394531 152.378906 31.441406 155.160156 L 31.605469 164.445312 C 34.59375 164.796875 37.171875 161.621094 40.546875 161.808594 C 42.085938 161.890625 43.34375 163.792969 44.136719 164.910156 C 44.914062 166.011719 45.542969 167.214844 46.265625 168.355469 C 46.496094 168.722656 46.765625 168.953125 47.058594 169.082031 Z M 47.058594 169.082031 " fill-opacity="1" fill-rule="nonzero"/><path fill="#000000" d="M 285.972656 56.597656 C 287.085938 57.273438 288.449219 58.347656 288.496094 59.792969 C 288.542969 61.074219 288.25 62.003906 287.972656 63.257812 C 287.101562 67.21875 293.191406 66.382812 294.804688 66.203125 C 298.585938 65.777344 299.171875 67 299.09375 71.261719 C 298.976562 77.320312 307.164062 72.640625 309.394531 76.527344 C 310.375 78.234375 309.355469 81.363281 311.261719 82.429688 C 313.34375 83.589844 320.035156 81.261719 322.082031 82.617188 C 324.390625 84.144531 323.753906 87.886719 327.554688 87.894531 C 329.746094 87.902344 332.390625 87.160156 334.53125 87.863281 C 336.5625 88.527344 337.648438 89.550781 338.832031 91.316406 C 339.535156 92.355469 339.695312 93.53125 339.738281 94.75 L 350.492188 82.632812 L 287.894531 49.511719 C 287.789062 49.449219 287.6875 49.390625 287.570312 49.339844 C 286.996094 49.101562 286.332031 49.078125 285.617188 49.359375 L 275.367188 53.054688 C 276.507812 56.652344 282.933594 54.746094 285.972656 56.597656 Z M 285.972656 56.597656 " fill-opacity="1" fill-rule="nonzero"/><path fill="#000000" d="M 102.414062 355.65625 C 100.785156 355.65625 99.121094 354.488281 98.390625 353.046875 C 97.46875 351.238281 97.328125 349.550781 97.359375 347.542969 C 97.460938 341.875 91.183594 345.339844 88.261719 346.300781 C 86.941406 346.734375 84.800781 346.121094 84.070312 344.867188 C 82.160156 341.601562 82.273438 337.390625 76.414062 338.398438 C 72.582031 339.058594 69.359375 338.5 67.695312 334.589844 C 66.898438 332.71875 65.878906 328.730469 62.335938 331.011719 C 61.28125 331.691406 60.472656 332.152344 59.261719 332.40625 C 57.550781 332.765625 55.746094 331.683594 54.671875 330.464844 C 52.566406 328.070312 53.5625 323.832031 49.238281 323.230469 C 46.386719 322.832031 44.234375 325.09375 41.410156 324.773438 C 37.449219 324.332031 36.507812 319.835938 34.292969 316.855469 L 34.488281 328.054688 C 34.515625 329.75 35.171875 330.992188 36.144531 331.527344 L 36.136719 331.53125 L 36.191406 331.5625 C 36.203125 331.566406 36.210938 331.574219 36.21875 331.578125 L 98.507812 366.5625 L 108.210938 355.628906 C 106.460938 355.453125 104.59375 355.660156 102.414062 355.65625 Z M 102.414062 355.65625 " fill-opacity="1" fill-rule="nonzero"/><g clip-path="url(#9eef6b27a2)"><path fill="#000000" d="M 98.6875 365.945312 L 34.882812 331.585938 C 34.121094 330.761719 33.675781 329.515625 33.648438 328.066406 L 30.605469 155.171875 C 30.550781 152.023438 32.382812 148.816406 34.785156 147.859375 L 285.308594 48.578125 C 286.1875 48.234375 287.085938 48.230469 287.894531 48.566406 C 288.054688 48.632812 288.199219 48.710938 288.339844 48.800781 L 351.117188 83.191406 Z M 37.609375 331.394531 L 98.332031 363.820312 L 349.160156 82.875 L 287.503906 50.253906 C 287.382812 50.179688 287.316406 50.144531 287.25 50.117188 C 286.839844 49.941406 286.398438 49.953125 285.925781 50.136719 L 35.402344 149.421875 C 33.667969 150.109375 32.238281 152.730469 32.28125 155.140625 L 35.324219 328.039062 C 35.347656 329.355469 35.804688 330.386719 36.546875 330.792969 L 37.621094 331.382812 Z M 37.609375 331.394531 " fill-opacity="1" fill-rule="nonzero"/></g><path fill="#00bfc3" d="M 354.519531 261.054688 C 354.570312 263.832031 352.9375 266.753906 350.871094 267.570312 L 101 365.867188 C 98.933594 366.6875 97.085938 365.714844 97.039062 362.9375 L 93.472656 190.402344 C 93.421875 187.621094 95.054688 184.703125 97.121094 183.886719 L 347.449219 83.742188 C 349.515625 82.921875 352.078125 84.398438 352.125 87.175781 Z M 354.519531 261.054688 " fill-opacity="1" fill-rule="nonzero"/><path fill="#000000" d="M 76.082031 347.96875 L 72.515625 183.707031 C 72.460938 180.554688 74.296875 177.34375 76.699219 176.394531 L 327.019531 76.25 L 327.640625 77.808594 L 77.316406 177.949219 C 75.578125 178.640625 74.148438 181.261719 74.195312 183.671875 L 77.757812 347.933594 Z M 76.082031 347.96875 " fill-opacity="1" fill-rule="nonzero"/><path fill="#000000" d="M 351.496094 267.324219 L 100.96875 366.605469 C 98.5625 367.554688 96.558594 365.695312 96.5 362.457031 L 93.457031 189.566406 C 93.398438 186.324219 95.308594 182.914062 97.714844 181.960938 L 348.242188 82.679688 C 350.644531 81.726562 352.648438 83.585938 352.707031 86.828125 L 355.75 259.71875 C 355.808594 262.957031 353.898438 266.367188 351.496094 267.324219 Z M 97.746094 183.636719 C 96.027344 184.320312 94.660156 186.757812 94.703125 189.070312 L 97.746094 361.960938 C 97.789062 364.277344 99.222656 365.605469 100.9375 364.925781 L 351.464844 265.644531 C 353.179688 264.960938 354.546875 262.527344 354.507812 260.214844 L 351.460938 87.320312 C 351.417969 85.007812 349.988281 83.679688 348.269531 84.359375 Z M 97.746094 183.636719 " fill-opacity="1" fill-rule="nonzero"/><path fill="#ffd33b" d="M 276 292.171875 C 276.046875 294.949219 274.414062 297.871094 272.347656 298.6875 L 178.867188 335.734375 C 176.804688 336.554688 175.089844 334.960938 175.039062 332.179688 L 173.027344 218.035156 C 172.980469 215.253906 174.613281 212.335938 176.675781 211.515625 L 270.160156 174.472656 C 272.222656 173.652344 273.9375 175.246094 273.988281 178.027344 Z M 276 292.171875 " fill-opacity="1" fill-rule="nonzero"/><path fill="#000000" d="M 272.96875 298.441406 L 179.492188 335.488281 C 177.085938 336.441406 175.082031 334.582031 175.023438 331.339844 L 173.011719 217.199219 C 172.957031 213.957031 174.867188 210.546875 177.273438 209.59375 L 270.753906 172.546875 C 273.160156 171.59375 275.160156 173.453125 275.21875 176.695312 L 277.230469 290.839844 C 277.285156 294.078125 275.378906 297.488281 272.96875 298.441406 Z M 177.304688 211.273438 C 175.585938 211.953125 174.21875 214.390625 174.261719 216.703125 L 176.273438 330.84375 C 176.3125 333.160156 177.746094 334.488281 179.464844 333.808594 L 272.941406 296.761719 C 274.660156 296.082031 276.027344 293.644531 275.984375 291.332031 L 273.972656 177.1875 C 273.933594 174.871094 272.5 173.546875 270.785156 174.226562 Z M 177.304688 211.273438 " fill-opacity="1" fill-rule="nonzero"/><path fill="#ff2273" d="M 263.414062 290.394531 L 188.632812 320.03125 L 188.394531 306.601562 L 263.179688 276.964844 Z M 263.414062 290.394531 " fill-opacity="1" fill-rule="nonzero"/><path fill="#000000" d="M 201.125 316.769531 L 187.414062 322.203125 L 187.121094 305.417969 L 200.832031 299.984375 Z M 188.632812 320.03125 L 199.851562 315.585938 L 199.613281 302.15625 L 188.394531 306.601562 Z M 188.632812 320.03125 " fill-opacity="1" fill-rule="nonzero"/><path fill="#000000" d="M 213.589844 311.832031 L 199.878906 317.265625 L 199.582031 300.476562 L 213.292969 295.046875 Z M 201.09375 315.089844 L 212.3125 310.648438 L 212.078125 297.21875 L 200.859375 301.664062 Z M 201.09375 315.089844 " fill-opacity="1" fill-rule="nonzero"/><path fill="#000000" d="M 226.054688 306.890625 L 212.34375 312.324219 L 212.046875 295.539062 L 225.757812 290.105469 Z M 213.5625 310.152344 L 224.78125 305.707031 L 224.542969 292.277344 L 213.324219 296.726562 Z M 213.5625 310.152344 " fill-opacity="1" fill-rule="nonzero"/><path fill="#000000" d="M 238.515625 301.953125 L 224.808594 307.382812 L 224.511719 290.597656 L 238.222656 285.167969 Z M 226.023438 305.214844 L 237.242188 300.769531 L 237.007812 287.339844 L 225.789062 291.785156 Z M 226.023438 305.214844 " fill-opacity="1" fill-rule="nonzero"/><path fill="#000000" d="M 250.980469 297.015625 L 237.269531 302.445312 L 236.976562 285.660156 L 250.683594 280.226562 Z M 238.488281 300.273438 L 249.707031 295.828125 L 249.46875 282.402344 L 238.253906 286.847656 Z M 238.488281 300.273438 " fill-opacity="1" fill-rule="nonzero"/><path fill="#000000" d="M 263.445312 292.074219 L 249.734375 297.507812 L 249.441406 280.722656 L 263.152344 275.289062 Z M 250.953125 295.335938 L 262.171875 290.890625 L 261.933594 277.460938 L 250.714844 281.90625 Z M 250.953125 295.335938 " fill-opacity="1" fill-rule="nonzero"/><path fill="#00bfc3" d="M 187.039062 294.84375 C 184.984375 295.660156 183.15625 294.101562 183.105469 291.332031 L 181.929688 224.554688 C 181.882812 221.785156 183.628906 218.8125 185.683594 217.996094 L 262.730469 187.46875 C 264.789062 186.652344 266.636719 188.203125 266.683594 190.972656 L 267.863281 257.75 C 267.910156 260.515625 266.140625 263.5 264.085938 264.316406 Z M 187.039062 294.84375 " fill-opacity="1" fill-rule="nonzero"/><path fill="#000000" d="M 263.941406 265.21875 L 187.363281 295.558594 C 185.035156 296.480469 183.167969 294.625 183.105469 291.332031 L 181.929688 224.554688 C 181.871094 221.261719 183.652344 217.957031 185.980469 217.03125 L 262.558594 186.6875 C 264.851562 185.78125 266.625 187.621094 266.683594 190.972656 L 267.863281 257.75 C 267.921875 261.097656 266.234375 264.308594 263.941406 265.21875 Z M 186.011719 218.710938 C 184.351562 219.371094 183.132812 221.667969 183.175781 224.0625 L 184.351562 290.839844 C 184.394531 293.230469 185.675781 294.539062 187.335938 293.882812 L 263.914062 263.539062 C 265.734375 262.816406 266.652344 260.324219 266.613281 258.242188 L 265.4375 191.464844 C 265.402344 189.382812 264.410156 187.644531 262.589844 188.367188 Z M 186.011719 218.710938 " fill-opacity="1" fill-rule="nonzero"/><path fill="#ffffff" d="M 185.980469 235.074219 C 183.925781 235.890625 182.101562 234.328125 182.050781 231.558594 L 181.929688 224.546875 C 181.882812 221.777344 183.621094 218.804688 185.679688 217.988281 L 262.730469 187.460938 C 264.789062 186.644531 266.636719 188.195312 266.683594 190.964844 L 266.808594 197.976562 C 266.855469 200.746094 265.089844 203.730469 263.03125 204.542969 Z M 185.980469 235.074219 " fill-opacity="1" fill-rule="nonzero"/><path fill="#000000" d="M 262.890625 205.445312 L 186.304688 235.789062 C 183.980469 236.710938 182.109375 234.851562 182.050781 231.558594 L 181.929688 224.546875 C 181.871094 221.25 183.648438 217.949219 185.976562 217.027344 L 262.5625 186.683594 C 264.851562 185.777344 266.625 187.617188 266.683594 190.964844 L 266.808594 197.976562 C 266.867188 201.328125 265.183594 204.539062 262.890625 205.445312 Z M 186.007812 218.707031 C 184.351562 219.363281 183.132812 221.660156 183.175781 224.050781 L 183.300781 231.0625 C 183.34375 233.457031 184.625 234.765625 186.277344 234.109375 L 262.863281 203.765625 C 264.683594 203.046875 265.597656 200.558594 265.5625 198.472656 L 265.441406 191.460938 C 265.402344 189.378906 264.410156 187.644531 262.589844 188.363281 Z M 186.007812 218.707031 " fill-opacity="1" fill-rule="nonzero"/><path fill="#ff2273" d="M 198.015625 277.128906 C 195.960938 277.945312 194.140625 276.382812 194.089844 273.613281 L 193.625 247.152344 C 193.574219 244.382812 195.410156 241.28125 197.464844 240.46875 L 251.984375 218.859375 C 254.042969 218.046875 255.894531 219.683594 255.945312 222.457031 L 256.410156 248.914062 C 256.457031 251.679688 254.703125 254.660156 252.644531 255.472656 Z M 198.015625 277.128906 " fill-opacity="1" fill-rule="nonzero"/><path fill="#000000" d="M 198.339844 277.84375 C 196.015625 278.769531 194.148438 276.90625 194.089844 273.613281 L 193.625 247.152344 C 193.570312 243.988281 195.042969 241.425781 197.464844 240.46875 L 251.984375 218.859375 C 254.40625 217.902344 255.886719 219.242188 255.945312 222.457031 L 256.410156 248.914062 C 256.46875 252.316406 254.828125 255.457031 252.503906 256.375 Z M 197.492188 242.148438 C 196.269531 242.632812 194.820312 243.808594 194.871094 246.660156 L 195.335938 273.121094 C 195.378906 275.515625 196.65625 276.820312 198.308594 276.167969 L 252.472656 254.699219 C 254.101562 254.054688 255.207031 251.878906 255.160156 249.410156 L 254.695312 222.949219 C 254.65625 220.660156 253.753906 219.851562 252.015625 220.539062 Z M 197.492188 242.148438 " fill-opacity="1" fill-rule="nonzero"/><path fill="#000000" d="M 212.390625 253.261719 C 212.480469 258.277344 209.53125 263.542969 205.804688 265.019531 C 202.078125 266.496094 198.988281 263.628906 198.898438 258.609375 C 198.808594 253.589844 201.757812 248.324219 205.488281 246.851562 C 209.210938 245.375 212.304688 248.242188 212.390625 253.261719 Z M 212.390625 253.261719 " fill-opacity="1" fill-rule="nonzero"/><path fill="#ffd33b" d="M 205.835938 266.699219 C 205.589844 266.796875 205.34375 266.875 205.105469 266.945312 C 204.417969 267.132812 203.898438 266.515625 203.945312 265.570312 C 203.988281 264.621094 204.582031 263.699219 205.269531 263.511719 C 205.941406 263.328125 206.636719 262.96875 207.28125 262.460938 C 207.941406 261.945312 208.636719 262.191406 208.839844 263.007812 C 209.046875 263.824219 208.675781 264.902344 208.019531 265.421875 C 207.3125 265.972656 206.578125 266.402344 205.835938 266.699219 Z M 200.027344 264.679688 C 199.613281 264.84375 199.203125 264.722656 198.957031 264.304688 C 198.410156 263.375 198.03125 262.28125 197.824219 261.039062 C 197.683594 260.179688 198.113281 259.125 198.785156 258.6875 C 199.460938 258.246094 200.121094 258.589844 200.265625 259.449219 C 200.40625 260.300781 200.667969 261.054688 201.042969 261.691406 C 201.417969 262.335938 201.257812 263.441406 200.683594 264.164062 C 200.480469 264.417969 200.253906 264.589844 200.027344 264.679688 Z M 212.027344 258.402344 C 211.875 258.460938 211.722656 258.484375 211.574219 258.464844 C 210.925781 258.386719 210.589844 257.539062 210.824219 256.578125 C 211.050781 255.628906 211.160156 254.675781 211.144531 253.753906 C 211.128906 252.828125 211.671875 251.855469 212.363281 251.585938 C 213.050781 251.3125 213.621094 251.839844 213.636719 252.765625 C 213.660156 254.109375 213.5 255.488281 213.167969 256.867188 C 212.988281 257.609375 212.523438 258.203125 212.027344 258.402344 Z M 200.570312 253.488281 C 200.273438 253.605469 199.96875 253.578125 199.726562 253.382812 C 199.207031 252.960938 199.148438 251.914062 199.597656 251.046875 C 200.246094 249.792969 201.019531 248.675781 201.894531 247.730469 C 202.503906 247.070312 203.253906 247.109375 203.582031 247.816406 C 203.902344 248.519531 203.671875 249.625 203.066406 250.285156 C 202.460938 250.9375 201.933594 251.707031 201.484375 252.570312 C 201.246094 253.03125 200.910156 253.355469 200.570312 253.488281 Z M 210.539062 249.503906 C 210.199219 249.636719 209.863281 249.585938 209.609375 249.324219 C 209.136719 248.828125 208.582031 248.492188 207.964844 248.328125 C 207.339844 248.160156 207.070312 247.253906 207.363281 246.300781 C 207.652344 245.351562 208.394531 244.710938 209.019531 244.882812 C 209.914062 245.121094 210.71875 245.605469 211.40625 246.324219 C 211.886719 246.824219 211.867188 247.898438 211.375 248.726562 C 211.136719 249.117188 210.839844 249.382812 210.539062 249.503906 Z M 210.539062 249.503906 " fill-opacity="1" fill-rule="nonzero"/><path fill="#000000" d="M 251.144531 237.902344 C 251.230469 242.921875 248.28125 248.1875 244.554688 249.664062 C 240.828125 251.136719 237.738281 248.269531 237.648438 243.25 C 237.5625 238.234375 240.507812 232.96875 244.234375 231.492188 C 247.960938 230.019531 251.054688 232.886719 251.144531 237.902344 Z M 251.144531 237.902344 " fill-opacity="1" fill-rule="nonzero"/><path fill="#ffd33b" d="M 244.585938 251.339844 C 244.339844 251.441406 244.097656 251.519531 243.855469 251.585938 C 243.167969 251.773438 242.648438 251.15625 242.695312 250.210938 C 242.742188 249.265625 243.332031 248.339844 244.023438 248.15625 C 244.691406 247.96875 245.386719 247.613281 246.03125 247.101562 C 246.691406 246.585938 247.390625 246.832031 247.59375 247.648438 C 247.796875 248.46875 247.425781 249.546875 246.769531 250.0625 C 246.066406 250.617188 245.328125 251.046875 244.585938 251.339844 Z M 238.78125 249.324219 C 238.363281 249.488281 237.953125 249.367188 237.707031 248.949219 C 237.164062 248.023438 236.78125 246.921875 236.578125 245.683594 C 236.433594 244.824219 236.863281 243.769531 237.539062 243.332031 C 238.210938 242.894531 238.875 243.234375 239.015625 244.09375 C 239.15625 244.945312 239.421875 245.699219 239.792969 246.335938 C 240.171875 246.980469 240.011719 248.085938 239.433594 248.808594 C 239.230469 249.058594 239.003906 249.234375 238.78125 249.324219 Z M 250.777344 243.046875 C 250.625 243.105469 250.472656 243.128906 250.324219 243.109375 C 249.675781 243.027344 249.339844 242.183594 249.574219 241.21875 C 249.804688 240.273438 249.914062 239.320312 249.894531 238.398438 C 249.878906 237.472656 250.421875 236.5 251.113281 236.226562 C 251.800781 235.957031 252.371094 236.484375 252.386719 237.410156 C 252.410156 238.75 252.25 240.132812 251.917969 241.511719 C 251.738281 242.25 251.273438 242.847656 250.777344 243.046875 Z M 239.324219 238.128906 C 239.023438 238.25 238.71875 238.222656 238.476562 238.027344 C 237.957031 237.601562 237.898438 236.558594 238.347656 235.6875 C 239 234.433594 239.769531 233.320312 240.644531 232.371094 C 241.253906 231.714844 242.007812 231.75 242.332031 232.457031 C 242.65625 233.160156 242.425781 234.269531 241.816406 234.925781 C 241.214844 235.578125 240.683594 236.347656 240.234375 237.210938 C 240 237.675781 239.660156 237.996094 239.324219 238.128906 Z M 249.289062 234.144531 C 248.953125 234.28125 248.613281 234.230469 248.363281 233.96875 C 247.886719 233.472656 247.332031 233.136719 246.71875 232.972656 C 246.09375 232.804688 245.824219 231.898438 246.113281 230.945312 C 246.402344 229.996094 247.144531 229.355469 247.773438 229.523438 C 248.667969 229.765625 249.472656 230.253906 250.160156 230.96875 C 250.636719 231.46875 250.621094 232.542969 250.125 233.375 C 249.890625 233.761719 249.59375 234.027344 249.289062 234.144531 Z M 249.289062 234.144531 " fill-opacity="1" fill-rule="nonzero"/><path fill="#000000" d="M 233.800781 248.039062 L 216.355469 254.957031 L 216.203125 246.5625 L 233.65625 239.648438 Z M 233.800781 248.039062 " fill-opacity="1" fill-rule="nonzero"/><path fill="#ffd33b" d="M 227.570312 250.511719 L 222.585938 252.488281 L 222.4375 244.09375 L 227.421875 242.117188 Z M 227.570312 250.511719 " fill-opacity="1" fill-rule="nonzero"/><path fill="#ffd33b" d="M 168.136719 276.410156 C 168.570312 300.824219 154.222656 326.433594 136.097656 333.613281 C 117.972656 340.800781 102.929688 326.832031 102.5 302.421875 C 102.070312 278.015625 116.414062 252.402344 134.542969 245.21875 C 152.667969 238.035156 167.707031 252.003906 168.136719 276.410156 Z M 168.136719 276.410156 " fill-opacity="1" fill-rule="nonzero"/><path fill="#000000" d="M 136.113281 334.453125 C 117.671875 341.761719 102.316406 327.503906 101.875 302.671875 C 101.441406 277.835938 116.085938 251.6875 134.523438 244.378906 C 152.964844 237.070312 168.320312 251.332031 168.761719 276.164062 C 169.199219 301 154.554688 327.148438 136.113281 334.453125 Z M 134.554688 246.058594 C 116.804688 253.09375 102.703125 278.265625 103.125 302.175781 C 103.542969 326.085938 118.332031 339.8125 136.082031 332.773438 C 153.835938 325.742188 167.9375 300.566406 167.515625 276.660156 C 167.09375 252.75 152.308594 239.023438 134.554688 246.058594 Z M 134.554688 246.058594 " fill-opacity="1" fill-rule="nonzero"/><path fill="#000000" d="M 135.878906 321.246094 C 122.847656 326.410156 111.996094 316.332031 111.6875 298.785156 C 111.375 281.234375 121.726562 262.753906 134.757812 257.589844 C 147.789062 252.429688 158.644531 262.503906 158.953125 280.050781 C 159.261719 297.601562 148.914062 316.082031 135.878906 321.246094 Z M 134.785156 259.265625 C 122.441406 264.160156 112.640625 281.664062 112.933594 298.289062 C 113.226562 314.914062 123.507812 324.460938 135.851562 319.566406 C 148.195312 314.675781 158 297.171875 157.707031 280.546875 C 157.414062 263.921875 147.132812 254.375 134.785156 259.265625 Z M 134.785156 259.265625 " fill-opacity="1" fill-rule="nonzero"/><path fill="#000000" d="M 145.476562 285.394531 C 145.613281 292.949219 141.171875 300.875 135.5625 303.097656 C 129.953125 305.324219 125.292969 301 125.160156 293.445312 C 125.027344 285.890625 129.46875 277.960938 135.078125 275.738281 C 140.6875 273.515625 145.34375 277.835938 145.476562 285.394531 Z M 145.476562 285.394531 " fill-opacity="1" fill-rule="nonzero"/><path fill="#ffd33b" d="M 347.617188 205.285156 C 348.050781 229.695312 333.707031 255.304688 315.578125 262.492188 C 297.453125 269.671875 282.410156 255.707031 281.980469 231.296875 C 281.550781 206.886719 295.894531 181.273438 314.023438 174.09375 C 332.148438 166.910156 347.191406 180.875 347.617188 205.285156 Z M 347.617188 205.285156 " fill-opacity="1" fill-rule="nonzero"/><path fill="#000000" d="M 315.59375 263.328125 C 297.152344 270.636719 281.796875 256.375 281.359375 231.542969 C 280.921875 206.710938 295.566406 180.5625 314.007812 173.253906 C 332.445312 165.949219 347.804688 180.207031 348.242188 205.039062 C 348.679688 229.871094 334.035156 256.019531 315.59375 263.328125 Z M 314.035156 174.929688 C 296.285156 181.964844 282.183594 207.140625 282.605469 231.046875 C 283.027344 254.957031 297.8125 268.683594 315.5625 261.648438 C 333.316406 254.617188 347.417969 229.441406 346.996094 205.53125 C 346.574219 181.625 331.789062 167.898438 314.035156 174.929688 Z M 314.035156 174.929688 " fill-opacity="1" fill-rule="nonzero"/><path fill="#000000" d="M 315.363281 250.117188 C 302.332031 255.285156 291.476562 245.207031 291.167969 227.65625 C 290.859375 210.109375 301.210938 191.625 314.242188 186.464844 C 327.273438 181.300781 338.125 191.375 338.433594 208.925781 C 338.742188 226.472656 328.394531 244.953125 315.363281 250.117188 Z M 314.269531 188.140625 C 301.925781 193.035156 292.121094 210.507812 292.414062 227.136719 C 292.707031 243.761719 302.988281 253.410156 315.332031 248.386719 L 315.335938 248.386719 C 327.675781 243.359375 337.480469 226.015625 337.1875 209.390625 C 336.894531 192.765625 326.613281 183.25 314.269531 188.140625 Z M 314.269531 188.140625 " fill-opacity="1" fill-rule="nonzero"/><path fill="#000000" d="M 324.957031 214.265625 C 325.089844 221.820312 320.652344 229.75 315.042969 231.972656 C 309.429688 234.195312 304.773438 229.871094 304.640625 222.316406 C 304.507812 214.761719 308.949219 206.835938 314.5625 204.609375 C 320.171875 202.386719 324.824219 206.707031 324.957031 214.265625 Z M 324.957031 214.265625 " fill-opacity="1" fill-rule="nonzero"/><path fill="#000000" d="M 353.667969 141.378906 L 94.417969 244.117188 L 94.390625 242.4375 L 353.636719 139.699219 Z M 353.667969 141.378906 " fill-opacity="1" fill-rule="nonzero"/><path fill="#ff2273" d="M 323.253906 124.695312 C 323.300781 127.480469 321.667969 130.394531 319.601562 131.214844 L 127.65625 207.28125 C 125.59375 208.101562 123.878906 206.507812 123.828125 203.726562 L 123.5625 188.621094 C 123.515625 185.839844 125.148438 182.921875 127.214844 182.105469 L 319.160156 106.035156 C 321.222656 105.21875 322.9375 106.808594 322.988281 109.589844 Z M 323.253906 124.695312 " fill-opacity="1" fill-rule="nonzero"/><path fill="#000000" d="M 318.980469 131.460938 L 127.035156 207.527344 C 124.628906 208.480469 122.625 206.621094 122.566406 203.382812 L 122.300781 188.277344 C 122.242188 185.035156 124.15625 181.625 126.558594 180.671875 L 318.503906 104.605469 C 320.910156 103.652344 322.914062 105.511719 322.972656 108.753906 L 323.238281 123.859375 C 323.292969 127.097656 321.382812 130.507812 318.980469 131.460938 Z M 126.589844 182.351562 C 124.871094 183.03125 123.507812 185.46875 123.546875 187.78125 L 123.8125 202.886719 C 123.855469 205.203125 125.285156 206.53125 127.003906 205.847656 L 318.949219 129.785156 C 320.667969 129.101562 322.03125 126.667969 321.988281 124.351562 L 321.726562 109.242188 C 321.679688 106.929688 320.25 105.601562 318.535156 106.285156 Z M 126.589844 182.351562 " fill-opacity="1" fill-rule="nonzero"/><path fill="#000000" d="M 316.871094 118.773438 L 129.910156 192.867188 C 129.566406 193 129.285156 192.734375 129.273438 192.273438 C 129.265625 191.808594 129.539062 191.324219 129.882812 191.1875 L 316.84375 117.097656 C 317.1875 116.960938 317.472656 117.226562 317.484375 117.691406 C 317.488281 118.148438 317.21875 118.640625 316.871094 118.773438 Z M 316.871094 118.773438 " fill-opacity="1" fill-rule="nonzero"/><path fill="#ffd33b" d="M 312.136719 123.875 C 312.273438 131.894531 307.5625 140.3125 301.605469 142.671875 C 295.648438 145.03125 290.707031 140.441406 290.566406 132.421875 C 290.425781 124.398438 295.136719 115.984375 301.09375 113.625 C 307.050781 111.261719 311.992188 115.851562 312.136719 123.875 Z M 312.136719 123.875 " fill-opacity="1" fill-rule="nonzero"/><path fill="#000000" d="M 301.621094 143.511719 C 295.332031 146.003906 290.09375 141.140625 289.945312 132.667969 C 289.792969 124.195312 294.789062 115.273438 301.082031 112.785156 C 307.371094 110.289062 312.605469 115.15625 312.753906 123.625 C 312.90625 132.097656 307.910156 141.019531 301.621094 143.511719 Z M 301.109375 114.460938 C 295.507812 116.683594 291.054688 124.628906 291.1875 132.175781 C 291.324219 139.71875 295.988281 144.050781 301.59375 141.832031 C 307.195312 139.609375 311.644531 131.667969 311.511719 124.121094 C 311.378906 116.574219 306.710938 112.242188 301.109375 114.460938 Z M 301.109375 114.460938 " fill-opacity="1" fill-rule="nonzero"/><path fill="#ff2273" d="M 117.832031 219.625 C 117.882812 222.40625 116.25 225.324219 114.183594 226.144531 L 105.457031 229.601562 C 103.394531 230.421875 101.679688 228.828125 101.628906 226.046875 L 101.363281 210.941406 C 101.316406 208.15625 102.949219 205.238281 105.015625 204.421875 L 113.742188 200.964844 C 115.804688 200.144531 117.519531 201.738281 117.566406 204.519531 Z M 117.832031 219.625 " fill-opacity="1" fill-rule="nonzero"/><path fill="#000000" d="M 113.558594 226.390625 L 104.832031 229.847656 C 102.429688 230.800781 100.425781 228.941406 100.367188 225.703125 L 100.101562 210.59375 C 100.042969 207.355469 101.953125 203.945312 104.359375 202.992188 L 113.082031 199.53125 C 115.488281 198.578125 117.492188 200.441406 117.550781 203.679688 L 117.816406 218.789062 C 117.875 222.027344 115.964844 225.4375 113.558594 226.390625 Z M 104.390625 204.667969 C 102.671875 205.347656 101.308594 207.785156 101.351562 210.101562 L 101.617188 225.207031 C 101.65625 227.519531 103.089844 228.851562 104.804688 228.167969 L 113.53125 224.710938 C 115.25 224.03125 116.613281 221.59375 116.574219 219.28125 L 116.304688 204.171875 C 116.265625 201.859375 114.835938 200.53125 113.117188 201.210938 Z M 104.390625 204.667969 " fill-opacity="1" fill-rule="nonzero"/><path fill="#000000" d="M 117.300781 189.410156 C 117.316406 190.335938 116.773438 191.3125 116.085938 191.582031 L 102.375 197.015625 C 101.6875 197.289062 101.113281 196.761719 101.097656 195.832031 L 101.011719 190.796875 C 100.996094 189.867188 101.539062 188.894531 102.226562 188.625 L 115.9375 183.191406 C 116.625 182.917969 117.195312 183.449219 117.214844 184.375 Z M 117.300781 189.410156 " fill-opacity="1" fill-rule="nonzero"/><path fill="#ffd33b" d="M 110.191406 189.625 C 110.21875 191.082031 109.363281 192.609375 108.28125 193.039062 C 107.199219 193.46875 106.300781 192.636719 106.273438 191.175781 C 106.25 189.722656 107.105469 188.195312 108.1875 187.765625 C 109.269531 187.335938 110.167969 188.167969 110.191406 189.625 Z M 110.191406 189.625 " fill-opacity="1" fill-rule="nonzero"/><path fill="#ff2273" d="M 347.167969 128.742188 C 347.21875 131.519531 345.585938 134.441406 343.519531 135.257812 L 334.792969 138.714844 C 332.730469 139.535156 331.015625 137.941406 330.964844 135.164062 L 330.699219 120.054688 C 330.652344 117.273438 332.285156 114.355469 334.351562 113.539062 L 343.078125 110.078125 C 345.140625 109.261719 346.855469 110.855469 346.902344 113.632812 Z M 347.167969 128.742188 " fill-opacity="1" fill-rule="nonzero"/><path fill="#000000" d="M 342.898438 135.503906 L 334.171875 138.960938 C 331.765625 139.917969 329.761719 138.054688 329.703125 134.816406 L 329.4375 119.710938 C 329.382812 116.46875 331.292969 113.058594 333.699219 112.105469 L 342.421875 108.648438 C 344.828125 107.695312 346.832031 109.554688 346.886719 112.792969 L 347.15625 127.902344 C 347.210938 131.140625 345.300781 134.554688 342.898438 135.503906 Z M 333.730469 113.785156 C 332.011719 114.464844 330.644531 116.902344 330.6875 119.214844 L 330.953125 134.324219 C 330.992188 136.636719 332.425781 137.964844 334.140625 137.285156 L 342.867188 133.828125 C 344.585938 133.148438 345.949219 130.710938 345.910156 128.394531 L 345.640625 113.289062 C 345.601562 110.976562 344.167969 109.648438 342.449219 110.328125 Z M 333.730469 113.785156 " fill-opacity="1" fill-rule="nonzero"/><path fill="#000000" d="M 346.636719 98.527344 C 346.652344 99.453125 346.109375 100.425781 345.421875 100.699219 L 331.710938 106.132812 C 331.019531 106.40625 330.453125 105.875 330.4375 104.949219 L 330.347656 99.910156 C 330.332031 98.984375 330.875 98.011719 331.5625 97.742188 L 345.273438 92.308594 C 345.960938 92.035156 346.53125 92.566406 346.546875 93.488281 Z M 346.636719 98.527344 " fill-opacity="1" fill-rule="nonzero"/><path fill="#ffd33b" d="M 339.433594 98.777344 C 339.460938 100.238281 338.605469 101.765625 337.523438 102.191406 C 336.441406 102.621094 335.542969 101.789062 335.519531 100.332031 C 335.492188 98.875 336.347656 97.347656 337.429688 96.917969 C 338.511719 96.488281 339.410156 97.324219 339.433594 98.777344 Z M 339.433594 98.777344 " fill-opacity="1" fill-rule="nonzero"/><path fill="#ffd33b" d="M 208.859375 185.601562 C 208.921875 189.199219 206.808594 192.976562 204.136719 194.03125 C 201.464844 195.09375 199.25 193.035156 199.1875 189.4375 C 199.121094 185.835938 201.234375 182.066406 203.910156 181.007812 C 206.578125 179.949219 208.796875 182.003906 208.859375 185.601562 Z M 208.859375 185.601562 " fill-opacity="1" fill-rule="nonzero"/><path fill="#000000" d="M 204.152344 194.871094 C 201.140625 196.066406 198.632812 193.738281 198.5625 189.683594 C 198.488281 185.628906 200.882812 181.359375 203.890625 180.167969 C 206.902344 178.972656 209.410156 181.300781 209.480469 185.355469 C 209.554688 189.410156 207.164062 193.679688 204.152344 194.871094 Z M 203.921875 181.84375 C 201.601562 182.765625 199.753906 186.058594 199.808594 189.1875 C 199.863281 192.316406 201.800781 194.113281 204.121094 193.191406 C 206.445312 192.273438 208.289062 188.976562 208.234375 185.847656 C 208.179688 182.71875 206.246094 180.925781 203.921875 181.84375 Z M 203.921875 181.84375 " fill-opacity="1" fill-rule="nonzero"/><path fill="#ffd33b" d="M 144.046875 211.289062 C 144.109375 214.886719 141.996094 218.660156 139.328125 219.71875 C 136.652344 220.777344 134.4375 218.71875 134.371094 215.121094 C 134.308594 211.523438 136.425781 207.75 139.097656 206.691406 C 141.765625 205.632812 143.980469 207.691406 144.046875 211.289062 Z M 144.046875 211.289062 " fill-opacity="1" fill-rule="nonzero"/><path fill="#000000" d="M 139.339844 220.558594 C 136.328125 221.75 133.820312 219.421875 133.75 215.367188 C 133.675781 211.3125 136.070312 207.042969 139.082031 205.851562 C 142.089844 204.65625 144.597656 206.984375 144.667969 211.039062 C 144.742188 215.097656 142.351562 219.363281 139.339844 220.558594 Z M 139.109375 207.53125 C 136.789062 208.449219 134.941406 211.746094 134.996094 214.875 C 135.050781 218.003906 136.984375 219.800781 139.308594 218.878906 C 141.636719 217.957031 143.480469 214.664062 143.421875 211.535156 C 143.367188 208.40625 141.433594 206.609375 139.109375 207.53125 Z M 139.109375 207.53125 " fill-opacity="1" fill-rule="nonzero"/><path fill="#000000" d="M 141.695312 212.21875 C 141.730469 214.070312 140.640625 216.011719 139.269531 216.554688 C 137.894531 217.101562 136.753906 216.039062 136.71875 214.191406 C 136.6875 212.339844 137.777344 210.398438 139.148438 209.855469 C 140.523438 209.308594 141.664062 210.367188 141.695312 212.21875 Z M 141.695312 212.21875 " fill-opacity="1" fill-rule="nonzero"/><path fill="#000000" d="M 204.042969 197.292969 C 203.351562 197.566406 202.78125 197.039062 202.765625 196.113281 L 202.5 181.003906 C 202.484375 180.078125 203.027344 179.105469 203.714844 178.832031 C 204.402344 178.558594 204.976562 179.089844 204.992188 180.015625 L 205.257812 195.121094 C 205.273438 196.046875 204.730469 197.023438 204.042969 197.292969 Z M 204.042969 197.292969 " fill-opacity="1" fill-rule="nonzero"/><path fill="#ffd33b" d="M 228.675781 177.75 C 228.738281 181.347656 226.625 185.125 223.953125 186.179688 C 221.28125 187.242188 219.066406 185.183594 219.003906 181.582031 C 218.9375 177.988281 221.054688 174.210938 223.726562 173.152344 C 226.394531 172.09375 228.609375 174.152344 228.675781 177.75 Z M 228.675781 177.75 " fill-opacity="1" fill-rule="nonzero"/><path fill="#000000" d="M 223.96875 187.019531 C 220.957031 188.214844 218.449219 185.886719 218.378906 181.832031 C 218.304688 177.777344 220.695312 173.503906 223.707031 172.3125 C 226.71875 171.121094 229.226562 173.449219 229.296875 177.503906 C 229.371094 181.554688 226.976562 185.828125 223.96875 187.019531 Z M 223.738281 173.992188 C 221.414062 174.910156 219.570312 178.207031 219.625 181.335938 C 219.679688 184.464844 221.613281 186.261719 223.9375 185.339844 C 226.261719 184.421875 228.105469 181.125 228.050781 177.996094 C 227.996094 174.867188 226.058594 173.070312 223.738281 173.992188 Z M 223.738281 173.992188 " fill-opacity="1" fill-rule="nonzero"/><path fill="#000000" d="M 223.984375 189.390625 C 223.292969 189.664062 222.722656 189.132812 222.707031 188.207031 L 222.441406 173.101562 C 222.425781 172.171875 222.96875 171.199219 223.660156 170.929688 C 224.347656 170.65625 224.917969 171.1875 224.933594 172.113281 L 225.199219 187.21875 C 225.21875 188.144531 224.671875 189.117188 223.984375 189.390625 Z M 223.984375 189.390625 " fill-opacity="1" fill-rule="nonzero"/><path fill="#ffd33b" d="M 246.996094 165.996094 C 248.925781 167.789062 249 171.914062 247.15625 175.207031 C 245.3125 178.496094 242.25 179.710938 240.316406 177.914062 C 238.382812 176.121094 238.3125 171.996094 240.15625 168.703125 C 242 165.414062 245.058594 164.199219 246.996094 165.996094 Z M 246.996094 165.996094 " fill-opacity="1" fill-rule="nonzero"/><path fill="#000000" d="M 243.785156 179.308594 C 242.328125 179.886719 240.941406 179.664062 239.886719 178.6875 C 237.707031 176.660156 237.625 171.996094 239.703125 168.285156 C 240.707031 166.488281 242.066406 165.179688 243.523438 164.605469 C 244.984375 164.023438 246.367188 164.246094 247.421875 165.226562 C 248.480469 166.207031 249.082031 167.828125 249.113281 169.792969 C 249.148438 171.753906 248.613281 173.828125 247.605469 175.625 C 246.601562 177.421875 245.242188 178.730469 243.785156 179.308594 Z M 243.554688 166.28125 C 242.433594 166.726562 241.382812 167.734375 240.609375 169.121094 C 239.003906 171.984375 239.066406 175.585938 240.746094 177.148438 C 242.375 178.660156 245.152344 177.5625 246.707031 174.789062 C 247.484375 173.398438 247.898438 171.800781 247.871094 170.285156 C 247.84375 168.769531 247.378906 167.519531 246.5625 166.761719 C 245.75 166.007812 244.679688 165.835938 243.554688 166.28125 Z M 243.554688 166.28125 " fill-opacity="1" fill-rule="nonzero"/><path fill="#000000" d="M 247.835938 177.941406 C 247.519531 178.070312 247.195312 178.03125 246.945312 177.800781 L 238.828125 170.261719 C 238.328125 169.796875 238.3125 168.738281 238.785156 167.886719 C 239.261719 167.039062 240.050781 166.726562 240.546875 167.1875 L 248.667969 174.726562 C 249.164062 175.191406 249.1875 176.253906 248.710938 177.101562 C 248.472656 177.527344 248.15625 177.816406 247.835938 177.941406 Z M 247.835938 177.941406 " fill-opacity="1" fill-rule="nonzero"/><path fill="#000000" d="M 186.53125 200.851562 L 181.546875 202.828125 L 181.308594 189.398438 L 186.296875 187.425781 Z M 186.53125 200.851562 " fill-opacity="1" fill-rule="nonzero"/><path fill="#000000" d="M 153.890625 200.265625 L 153.949219 203.625 L 148.964844 205.597656 L 148.902344 202.242188 Z M 153.890625 200.265625 " fill-opacity="1" fill-rule="nonzero"/><path fill="#ffd33b" d="M 322.332031 143.65625 L 273.71875 162.917969 C 272.6875 163.328125 271.832031 162.53125 271.808594 161.140625 C 271.78125 159.75 272.601562 158.292969 273.632812 157.882812 L 322.242188 138.621094 C 323.273438 138.210938 324.132812 139.007812 324.15625 140.398438 C 324.179688 141.789062 323.363281 143.246094 322.332031 143.65625 Z M 322.332031 143.65625 " fill-opacity="1" fill-rule="nonzero"/><path fill="#000000" d="M 165.109375 195.820312 L 165.167969 199.179688 L 160.179688 201.152344 L 160.121094 197.796875 Z M 165.109375 195.820312 " fill-opacity="1" fill-rule="nonzero"/><path fill="#000000" d="M 266.300781 169.242188 L 261.316406 171.214844 L 261.078125 157.789062 L 266.066406 155.8125 Z M 266.300781 169.242188 " fill-opacity="1" fill-rule="nonzero"/><path fill="#00bfc3" d="M 273.976562 65.957031 C 273.257812 64.25 271.292969 63.449219 269.585938 64.167969 L 110.300781 131.347656 C 109.96875 131.121094 109.589844 130.953125 109.152344 130.953125 C 108.003906 130.953125 107.078125 131.882812 107.078125 133.03125 C 107.078125 134.179688 108.003906 135.109375 109.152344 135.109375 C 110.0625 135.109375 110.816406 134.515625 111.09375 133.699219 L 272.113281 70.386719 C 272.132812 70.378906 272.167969 70.367188 272.1875 70.355469 C 273.894531 69.636719 274.695312 67.667969 273.976562 65.957031 Z M 273.976562 65.957031 " fill-opacity="1" fill-rule="nonzero"/><path fill="#000000" d="M 270.882812 63.90625 C 272.195312 63.90625 273.441406 64.671875 273.976562 65.957031 C 274.695312 67.667969 273.898438 69.636719 272.1875 70.355469 C 272.167969 70.363281 272.132812 70.375 272.113281 70.386719 L 111.09375 133.695312 C 110.816406 134.511719 110.0625 135.109375 109.152344 135.109375 C 108.003906 135.109375 107.078125 134.179688 107.078125 133.027344 C 107.078125 131.882812 108.003906 130.953125 109.152344 130.953125 C 109.585938 130.953125 109.96875 131.117188 110.300781 131.34375 L 269.585938 64.167969 C 270.011719 63.988281 270.453125 63.90625 270.882812 63.90625 M 270.882812 62.226562 C 270.210938 62.226562 269.554688 62.359375 268.933594 62.621094 L 110.363281 129.496094 C 109.96875 129.347656 109.5625 129.273438 109.152344 129.273438 C 107.082031 129.273438 105.402344 130.960938 105.402344 133.03125 C 105.402344 135.101562 107.082031 136.785156 109.152344 136.785156 C 110.453125 136.785156 111.636719 136.101562 112.308594 135.019531 L 272.722656 71.949219 L 272.839844 71.902344 C 274.078125 71.378906 275.039062 70.40625 275.546875 69.160156 C 276.050781 67.914062 276.042969 66.546875 275.519531 65.308594 C 274.734375 63.433594 272.914062 62.226562 270.882812 62.226562 Z M 270.882812 62.226562 " fill-opacity="1" fill-rule="nonzero"/><path fill="#000000" d="M 255.71875 77.632812 C 254.066406 77.632812 252.5 76.648438 251.835938 75.023438 C 250.960938 72.878906 251.988281 70.425781 254.132812 69.550781 L 269.238281 63.378906 C 271.378906 62.5 273.828125 63.535156 274.703125 65.675781 C 275.578125 67.824219 274.550781 70.273438 272.40625 71.148438 L 257.300781 77.320312 C 256.78125 77.535156 256.246094 77.632812 255.71875 77.632812 Z M 255.71875 77.632812 " fill-opacity="1" fill-rule="nonzero"/><path fill="#000000" d="M 94.589844 243.796875 L 73.695312 232.640625 L 74.488281 231.15625 L 95.378906 242.316406 Z M 94.589844 243.796875 " fill-opacity="1" fill-rule="nonzero"/><path fill="#ffd33b" d="M 285.109375 83.882812 L 283.671875 22.710938 L 101.007812 94.925781 L 102.59375 159.792969 C 102.59375 159.792969 101.011719 161.566406 96.917969 161.566406 C 92.828125 161.566406 91.191406 160.070312 91.191406 160.070312 L 89.507812 91.246094 C 89.449219 88.851562 90.886719 86.660156 93.113281 85.78125 L 287.085938 9.089844 C 288.824219 8.410156 290.777344 8.609375 292.335938 9.640625 C 293.886719 10.671875 294.839844 12.398438 294.882812 14.265625 L 296.511719 83.617188 C 296.511719 83.617188 293.929688 85.128906 290.5625 85.128906 C 287.195312 85.128906 285.109375 83.882812 285.109375 83.882812 Z M 285.109375 83.882812 " fill-opacity="1" fill-rule="nonzero"/><g clip-path="url(#d091d5ff88)"><path fill="#000000" d="M 96.917969 162.402344 C 92.550781 162.402344 90.703125 160.757812 90.625 160.6875 L 90.363281 160.445312 L 88.671875 91.261719 C 88.605469 88.523438 90.269531 86.003906 92.808594 85 L 286.777344 8.308594 C 288.753906 7.53125 291.035156 7.773438 292.796875 8.941406 C 294.578125 10.125 295.671875 12.105469 295.722656 14.246094 L 297.363281 84.089844 L 296.933594 84.34375 C 296.820312 84.410156 294.117188 85.96875 290.5625 85.96875 C 287.003906 85.96875 284.773438 84.664062 284.679688 84.605469 L 284.28125 84.371094 L 282.859375 23.9375 L 101.859375 95.492188 L 103.441406 160.105469 L 103.21875 160.347656 C 103.144531 160.433594 101.335938 162.402344 96.917969 162.402344 Z M 92.019531 159.632812 C 92.589844 159.980469 94.125 160.722656 96.917969 160.722656 C 99.75 160.722656 101.21875 159.835938 101.746094 159.421875 L 100.15625 94.359375 L 100.699219 94.144531 L 284.484375 21.488281 L 285.933594 83.359375 C 286.652344 83.683594 288.300781 84.289062 290.5625 84.289062 C 292.882812 84.289062 294.832031 83.503906 295.660156 83.109375 L 294.042969 14.285156 C 294.007812 12.695312 293.195312 11.21875 291.871094 10.339844 C 290.558594 9.472656 288.863281 9.292969 287.394531 9.871094 L 93.421875 86.5625 C 91.535156 87.308594 90.296875 89.179688 90.347656 91.222656 Z M 92.019531 159.632812 " fill-opacity="1" fill-rule="nonzero"/></g><path fill="#ffd33b" d="M 261.695312 110.695312 C 252.316406 114.382812 239.039062 114.183594 232.042969 110.253906 C 229.164062 108.640625 227.796875 106.640625 227.835938 104.597656 C 227.859375 103.289062 227.851562 98.246094 227.851562 98.246094 L 270.210938 96.25 C 270.210938 96.25 270 100.167969 270.191406 102.023438 C 270.324219 103.304688 269.894531 104.617188 268.925781 105.882812 C 267.5625 107.664062 265.128906 109.34375 261.695312 110.695312 Z M 261.695312 110.695312 " fill-opacity="1" fill-rule="nonzero"/><path fill="#000000" d="M 246.648438 114.175781 C 240.625 114.175781 235.292969 113.042969 231.632812 110.984375 C 227.742188 108.804688 226.964844 106.300781 226.996094 104.582031 C 227.019531 103.277344 227.015625 98.25 227.015625 98.25 C 227.015625 97.800781 227.363281 97.429688 227.8125 97.410156 L 270.167969 95.414062 C 270.414062 95.410156 270.636719 95.492188 270.804688 95.660156 C 270.96875 95.828125 271.058594 96.0625 271.046875 96.296875 C 271.042969 96.335938 270.84375 100.171875 271.027344 101.9375 C 271.179688 103.425781 270.683594 104.964844 269.589844 106.394531 C 268.085938 108.359375 265.460938 110.113281 262 111.476562 C 257.574219 113.214844 252.121094 114.175781 246.648438 114.175781 Z M 228.691406 99.046875 C 228.691406 100.527344 228.691406 103.625 228.675781 104.613281 C 228.640625 106.417969 229.945312 108.117188 232.453125 109.523438 C 235.816406 111.410156 240.992188 112.496094 246.648438 112.496094 C 251.917969 112.496094 257.152344 111.582031 261.390625 109.914062 C 264.566406 108.667969 266.945312 107.09375 268.265625 105.371094 C 269.101562 104.277344 269.46875 103.179688 269.355469 102.109375 C 269.21875 100.757812 269.28125 98.425781 269.332031 97.132812 Z M 228.691406 99.046875 " fill-opacity="1" fill-rule="nonzero"/><path fill="#ffd33b" d="M 261.695312 104.347656 C 252.316406 108.035156 239.039062 107.839844 232.042969 103.910156 C 225.042969 99.980469 226.976562 93.808594 236.359375 90.121094 C 245.734375 86.433594 259.011719 86.632812 266.007812 90.558594 C 273.003906 94.488281 271.074219 100.664062 261.695312 104.347656 Z M 261.695312 104.347656 " fill-opacity="1" fill-rule="nonzero"/><path fill="#000000" d="M 246.648438 107.828125 C 240.625 107.828125 235.292969 106.699219 231.632812 104.640625 C 228.476562 102.867188 226.835938 100.5 227.007812 97.972656 C 227.238281 94.65625 230.53125 91.507812 236.050781 89.339844 C 240.480469 87.597656 245.929688 86.640625 251.398438 86.640625 C 257.421875 86.640625 262.757812 87.769531 266.417969 89.828125 C 269.570312 91.597656 271.210938 93.964844 271.039062 96.496094 C 270.8125 99.8125 267.515625 102.960938 262 105.128906 C 257.574219 106.871094 252.121094 107.828125 246.648438 107.828125 Z M 251.398438 88.320312 C 246.132812 88.320312 240.898438 89.234375 236.664062 90.902344 C 231.84375 92.792969 228.863281 95.480469 228.683594 98.089844 C 228.550781 99.960938 229.855469 101.722656 232.449219 103.179688 C 235.816406 105.066406 240.992188 106.152344 246.648438 106.152344 C 251.917969 106.152344 257.152344 105.234375 261.390625 103.570312 C 266.207031 101.675781 269.1875 98.988281 269.371094 96.382812 C 269.496094 94.507812 268.191406 92.75 265.597656 91.292969 C 262.234375 89.402344 257.058594 88.320312 251.398438 88.320312 Z M 251.398438 88.320312 " fill-opacity="1" fill-rule="nonzero"/><path fill="#ffffff" d="M 118.695312 244.066406 C 118.65625 243.253906 118.253906 242.472656 117.449219 242.03125 C 115.871094 241.171875 113.785156 242.023438 112.195312 242.429688 C 110.683594 242.816406 109.210938 243.316406 107.792969 243.960938 C 106.449219 244.566406 105.078125 245.253906 104.035156 246.320312 C 102.875 247.507812 102.308594 249.078125 101.996094 250.683594 C 101.523438 253.140625 101.402344 255.671875 101.46875 258.171875 C 101.519531 260.167969 101.152344 263.707031 103.714844 264.339844 C 106.203125 264.953125 106.832031 262.484375 107.238281 260.664062 C 107.777344 258.21875 108.167969 255.734375 108.625 253.273438 C 108.792969 252.375 109.003906 251.460938 109.738281 250.851562 C 110.5 250.210938 111.539062 249.882812 112.402344 249.410156 C 114.128906 248.464844 115.882812 247.546875 117.515625 246.449219 C 118.316406 245.910156 118.730469 244.96875 118.695312 244.066406 Z M 118.695312 244.066406 " fill-opacity="1" fill-rule="nonzero"/><path fill="#000000" d="M 104.445312 265.273438 C 104.148438 265.273438 103.835938 265.230469 103.515625 265.152344 C 100.632812 264.445312 100.636719 261.15625 100.636719 258.980469 C 100.636719 258.703125 100.636719 258.433594 100.628906 258.191406 C 100.554688 255.320312 100.730469 252.8125 101.171875 250.523438 C 101.578125 248.445312 102.320312 246.878906 103.433594 245.730469 C 104.605469 244.535156 106.121094 243.792969 107.449219 243.191406 C 108.859375 242.550781 110.386719 242.023438 111.984375 241.613281 C 112.238281 241.550781 112.5 241.476562 112.773438 241.398438 C 114.386719 240.933594 116.460938 240.535156 117.847656 241.292969 C 118.863281 241.851562 119.476562 242.84375 119.53125 244.027344 C 119.582031 245.277344 118.988281 246.46875 117.980469 247.144531 C 116.554688 248.101562 115.035156 248.925781 113.566406 249.730469 L 112.804688 250.144531 C 112.492188 250.316406 112.160156 250.46875 111.824219 250.625 C 111.242188 250.894531 110.691406 251.144531 110.269531 251.496094 C 109.761719 251.914062 109.597656 252.617188 109.449219 253.425781 C 109.304688 254.195312 109.167969 254.96875 109.03125 255.746094 C 108.730469 257.449219 108.429688 259.152344 108.054688 260.84375 C 107.710938 262.390625 107.070312 265.273438 104.445312 265.273438 Z M 115.847656 242.5 C 115.023438 242.5 114.113281 242.757812 113.234375 243.011719 C 112.945312 243.09375 112.664062 243.175781 112.398438 243.242188 C 110.898438 243.625 109.464844 244.125 108.136719 244.722656 C 106.949219 245.261719 105.597656 245.917969 104.636719 246.90625 C 103.738281 247.824219 103.164062 249.074219 102.820312 250.84375 C 102.402344 253.011719 102.234375 255.398438 102.308594 258.148438 C 102.3125 258.40625 102.3125 258.6875 102.3125 258.984375 C 102.3125 261.25 102.429688 263.15625 103.914062 263.519531 C 105.375 263.871094 105.914062 262.746094 106.417969 260.480469 C 106.785156 258.8125 107.082031 257.132812 107.382812 255.449219 C 107.519531 254.671875 107.65625 253.894531 107.800781 253.117188 C 107.996094 252.066406 108.265625 250.980469 109.199219 250.203125 C 109.785156 249.710938 110.46875 249.398438 111.128906 249.097656 C 111.425781 248.960938 111.722656 248.824219 112 248.671875 L 112.765625 248.253906 C 114.203125 247.472656 115.6875 246.664062 117.046875 245.75 C 117.574219 245.398438 117.882812 244.761719 117.855469 244.09375 C 117.839844 243.761719 117.714844 243.132812 117.042969 242.765625 C 116.714844 242.585938 116.324219 242.5 115.847656 242.5 Z M 115.847656 242.5 " fill-opacity="1" fill-rule="nonzero"/><path fill="#ffffff" d="M 330.703125 261.863281 C 330.738281 262.671875 331.140625 263.453125 331.949219 263.894531 C 333.519531 264.757812 335.613281 263.902344 337.203125 263.5 C 338.710938 263.113281 340.183594 262.609375 341.601562 261.96875 C 342.941406 261.359375 344.316406 260.671875 345.359375 259.605469 C 346.519531 258.417969 347.085938 256.847656 347.398438 255.246094 C 347.875 252.785156 347.992188 250.257812 347.925781 247.753906 C 347.878906 245.757812 348.242188 242.222656 345.683594 241.589844 C 343.191406 240.976562 342.5625 243.445312 342.160156 245.261719 C 341.617188 247.710938 341.226562 250.191406 340.769531 252.652344 C 340.601562 253.554688 340.390625 254.46875 339.660156 255.078125 C 338.894531 255.714844 337.859375 256.042969 336.992188 256.515625 C 335.265625 257.460938 333.511719 258.382812 331.878906 259.480469 C 331.078125 260.019531 330.664062 260.957031 330.703125 261.863281 Z M 330.703125 261.863281 " fill-opacity="1" fill-rule="nonzero"/><path fill="#000000" d="M 333.546875 265.105469 C 332.792969 265.105469 332.121094 264.945312 331.542969 264.632812 C 330.53125 264.078125 329.917969 263.082031 329.863281 261.902344 C 329.8125 260.65625 330.40625 259.457031 331.417969 258.78125 C 332.839844 257.820312 334.367188 256.992188 335.84375 256.1875 L 336.589844 255.785156 C 336.902344 255.613281 337.234375 255.460938 337.570312 255.304688 C 338.152344 255.035156 338.707031 254.78125 339.125 254.433594 C 339.625 254.015625 339.792969 253.3125 339.945312 252.503906 C 340.082031 251.753906 340.21875 251.003906 340.351562 250.253906 C 340.652344 248.558594 340.960938 246.800781 341.339844 245.085938 C 341.683594 243.539062 342.320312 240.65625 344.949219 240.65625 C 345.246094 240.65625 345.5625 240.699219 345.882812 240.777344 C 348.765625 241.488281 348.761719 244.90625 348.757812 246.953125 C 348.757812 247.234375 348.757812 247.496094 348.765625 247.738281 C 348.839844 250.609375 348.664062 253.117188 348.222656 255.40625 C 347.820312 257.480469 347.082031 259.046875 345.957031 260.199219 C 344.796875 261.390625 343.277344 262.132812 341.949219 262.738281 C 340.535156 263.375 339.011719 263.90625 337.410156 264.3125 C 337.160156 264.378906 336.898438 264.453125 336.625 264.53125 C 335.679688 264.800781 334.609375 265.105469 333.546875 265.105469 Z M 344.949219 242.332031 C 343.878906 242.332031 343.414062 243.472656 342.980469 245.449219 C 342.605469 247.128906 342.296875 248.867188 342 250.546875 C 341.867188 251.304688 341.734375 252.054688 341.59375 252.808594 C 341.441406 253.636719 341.203125 254.886719 340.195312 255.726562 C 339.609375 256.21875 338.925781 256.527344 338.269531 256.832031 C 337.96875 256.964844 337.671875 257.101562 337.394531 257.257812 L 336.644531 257.664062 C 335.203125 258.449219 333.710938 259.261719 332.351562 260.175781 C 331.824219 260.53125 331.511719 261.164062 331.542969 261.828125 C 331.558594 262.171875 331.683594 262.792969 332.351562 263.160156 C 333.25 263.652344 334.777344 263.3125 336.164062 262.917969 C 336.453125 262.832031 336.730469 262.75 336.996094 262.6875 C 338.5 262.300781 339.933594 261.800781 341.253906 261.207031 C 342.445312 260.664062 343.796875 260.007812 344.757812 259.023438 C 345.644531 258.113281 346.238281 256.828125 346.578125 255.085938 C 346.992188 252.917969 347.160156 250.53125 347.085938 247.78125 C 347.082031 247.523438 347.082031 247.246094 347.082031 246.949219 C 347.082031 244.683594 346.964844 242.773438 345.480469 242.40625 C 345.289062 242.359375 345.113281 242.332031 344.949219 242.332031 Z M 344.949219 242.332031 " fill-opacity="1" fill-rule="nonzero"/><path fill="#00bfc3" d="M 223.371094 115.945312 C 223.753906 116.039062 224.074219 116.441406 224.082031 116.835938 L 224.21875 123.964844 C 224.230469 124.359375 223.933594 124.800781 223.570312 124.949219 L 212.917969 129.210938 C 212.550781 129.359375 211.9375 129.402344 211.554688 129.308594 L 193.117188 124.738281 C 192.734375 124.640625 192.460938 124.242188 192.460938 123.847656 L 192.460938 116.890625 C 192.460938 116.496094 192.71875 116.046875 193.078125 115.890625 L 203.476562 111.417969 C 203.839844 111.261719 204.4375 111.214844 204.820312 111.308594 Z M 223.371094 115.945312 " fill-opacity="1" fill-rule="nonzero"/><path fill="#000000" d="M 211.75 130.035156 C 211.257812 130.035156 210.800781 129.988281 210.421875 129.890625 L 193.910156 125.78125 C 192.640625 125.46875 191.742188 124.195312 191.742188 122.886719 L 191.742188 117.851562 C 191.742188 116.601562 192.542969 115.234375 193.691406 114.738281 L 202.296875 111.027344 C 203.277344 110.609375 204.929688 110.46875 205.972656 110.730469 L 222.65625 114.898438 C 223.917969 115.214844 224.917969 116.480469 224.945312 117.78125 L 225.042969 122.988281 C 225.070312 124.253906 224.164062 125.613281 222.992188 126.082031 L 214.121094 129.636719 C 213.5 129.886719 212.609375 130.035156 211.75 130.035156 Z M 204.667969 112.269531 C 204.027344 112.269531 203.335938 112.386719 202.90625 112.570312 L 194.230469 116.285156 C 193.691406 116.515625 193.179688 117.261719 193.179688 117.851562 L 193.179688 122.886719 C 193.179688 123.421875 193.671875 124.027344 194.1875 124.15625 L 210.816406 128.265625 C 211.503906 128.433594 212.828125 128.34375 213.492188 128.082031 L 222.363281 124.53125 C 222.894531 124.316406 223.375 123.597656 223.363281 123.023438 L 223.257812 117.816406 C 223.246094 117.273438 222.761719 116.660156 222.238281 116.527344 L 205.539062 112.359375 C 205.304688 112.300781 205.003906 112.269531 204.667969 112.269531 Z M 204.667969 112.269531 " fill-opacity="1" fill-rule="nonzero"/><path fill="#000000" d="M 212.070312 121.96875 L 192.554688 117.0625 L 192.964844 115.433594 L 211.941406 120.207031 L 222.855469 115.683594 L 223.496094 117.234375 Z M 212.070312 121.96875 " fill-opacity="1" fill-rule="nonzero"/><path fill="#000000" d="M 211.410156 129.503906 L 211.160156 121.113281 L 212.835938 121.0625 L 213.085938 129.453125 Z M 211.410156 129.503906 " fill-opacity="1" fill-rule="nonzero"/><path fill="#00bfc3" d="M 198.222656 126.015625 C 198.605469 126.109375 198.925781 126.511719 198.933594 126.90625 L 199.074219 134.03125 C 199.082031 134.425781 198.789062 134.871094 198.421875 135.015625 L 187.773438 139.28125 C 187.40625 139.429688 186.792969 139.472656 186.410156 139.375 L 167.992188 134.808594 C 167.609375 134.710938 167.359375 134.3125 167.359375 133.917969 L 167.359375 126.960938 C 167.359375 126.566406 167.59375 126.113281 167.957031 125.960938 L 178.339844 121.488281 C 178.703125 121.332031 179.296875 121.285156 179.679688 121.378906 Z M 198.222656 126.015625 " fill-opacity="1" fill-rule="nonzero"/><path fill="#000000" d="M 186.605469 140.105469 C 186.113281 140.105469 185.65625 140.054688 185.277344 139.960938 L 168.78125 135.851562 C 167.515625 135.535156 166.640625 134.265625 166.640625 132.957031 L 166.640625 127.917969 C 166.640625 126.671875 167.421875 125.300781 168.566406 124.808594 L 177.164062 121.097656 C 178.140625 120.675781 179.789062 120.539062 180.832031 120.796875 L 197.511719 124.964844 C 198.773438 125.28125 199.773438 126.546875 199.800781 127.851562 L 199.898438 133.054688 C 199.921875 134.320312 199.019531 135.683594 197.847656 136.152344 L 188.976562 139.707031 C 188.351562 139.957031 187.464844 140.105469 186.605469 140.105469 Z M 179.523438 122.339844 C 178.878906 122.339844 178.1875 122.457031 177.761719 122.640625 L 169.109375 126.351562 C 168.566406 126.585938 168.078125 127.332031 168.078125 127.921875 L 168.078125 132.957031 C 168.078125 133.492188 168.546875 134.097656 169.066406 134.222656 L 185.679688 138.335938 C 186.367188 138.503906 187.6875 138.414062 188.351562 138.152344 L 197.222656 134.597656 C 197.753906 134.382812 198.226562 133.667969 198.21875 133.089844 L 198.113281 127.886719 C 198.101562 127.34375 197.613281 126.730469 197.089844 126.597656 L 180.394531 122.429688 C 180.160156 122.371094 179.859375 122.339844 179.523438 122.339844 Z M 179.523438 122.339844 " fill-opacity="1" fill-rule="nonzero"/><path fill="#000000" d="M 186.925781 132.039062 L 167.410156 127.128906 L 167.820312 125.503906 L 186.792969 130.277344 L 197.707031 125.753906 L 198.351562 127.304688 Z M 186.925781 132.039062 " fill-opacity="1" fill-rule="nonzero"/><path fill="#000000" d="M 186.261719 139.574219 L 186.015625 131.179688 L 187.691406 131.132812 L 187.9375 139.527344 Z M 186.261719 139.574219 " fill-opacity="1" fill-rule="nonzero"/><path fill="#00bfc3" d="M 173.078125 136.085938 C 173.460938 136.179688 173.78125 136.582031 173.789062 136.976562 L 173.925781 144.101562 C 173.9375 144.5 173.640625 144.941406 173.277344 145.085938 L 162.625 149.351562 C 162.257812 149.5 161.644531 149.542969 161.261719 149.445312 L 142.871094 144.878906 C 142.488281 144.78125 142.257812 144.382812 142.257812 143.988281 L 142.257812 137.03125 C 142.257812 136.636719 142.46875 136.1875 142.832031 136.03125 L 153.207031 131.558594 C 153.570312 131.402344 154.15625 131.355469 154.539062 131.453125 Z M 173.078125 136.085938 " fill-opacity="1" fill-rule="nonzero"/><path fill="#000000" d="M 161.457031 150.175781 C 160.964844 150.175781 160.507812 150.128906 160.128906 150.03125 L 143.660156 145.921875 C 142.390625 145.609375 141.539062 144.335938 141.539062 143.027344 L 141.539062 137.992188 C 141.539062 136.742188 142.296875 135.375 143.441406 134.878906 L 152.027344 131.167969 C 153.003906 130.75 154.648438 130.605469 155.691406 130.871094 L 172.367188 135.039062 C 173.628906 135.355469 174.628906 136.617188 174.652344 137.921875 L 174.75 143.125 C 174.773438 144.390625 173.871094 145.75 172.699219 146.222656 L 163.828125 149.777344 C 163.207031 150.027344 162.316406 150.175781 161.457031 150.175781 Z M 154.375 132.410156 C 153.734375 132.410156 153.039062 132.527344 152.613281 132.710938 L 143.984375 136.421875 C 143.441406 136.65625 142.976562 137.402344 142.976562 137.992188 L 142.976562 143.027344 C 142.976562 143.5625 143.421875 144.167969 143.941406 144.292969 L 160.546875 148.40625 C 161.234375 148.574219 162.546875 148.484375 163.210938 148.21875 L 172.078125 144.667969 C 172.609375 144.453125 173.085938 143.738281 173.074219 143.160156 L 172.96875 137.953125 C 172.957031 137.414062 172.46875 136.800781 171.945312 136.667969 L 155.25 132.5 C 155.011719 132.441406 154.710938 132.410156 154.375 132.410156 Z M 154.375 132.410156 " fill-opacity="1" fill-rule="nonzero"/><path fill="#000000" d="M 161.777344 142.109375 L 142.261719 137.203125 L 142.671875 135.574219 L 161.648438 140.347656 L 172.5625 135.824219 L 173.203125 137.375 Z M 161.777344 142.109375 " fill-opacity="1" fill-rule="nonzero"/><path fill="#000000" d="M 161.113281 149.636719 L 160.867188 141.246094 L 162.542969 141.195312 L 162.789062 149.589844 Z M 161.113281 149.636719 " fill-opacity="1" fill-rule="nonzero"/></svg>