<svg xmlns="http://www.w3.org/2000/svg" xmlns:xlink="http://www.w3.org/1999/xlink" width="500" zoomAndPan="magnify" viewBox="0 0 375 374.999991" height="500" preserveAspectRatio="xMidYMid meet" version="1.0"><defs><g/></defs><g fill="#dc3c4d" fill-opacity="0.302"><g transform="translate(83.585621, 222.875175)"><g><path d="M 14.8125 -2.078125 L 12.734375 -16.890625 L 20.125 -17.9375 L 22.203125 -3.125 Z M 11.6875 -24.28125 L 10.640625 -31.671875 L 18.03125 -32.71875 L 19.078125 -25.328125 Z M 0 0 L -5.203125 -37 L 9.609375 -39.078125 L 10.640625 -31.671875 L 3.21875 -30.640625 L 4.265625 -23.25 L 11.6875 -24.28125 L 12.734375 -16.890625 L 5.3125 -15.859375 L 7.390625 -1.046875 Z M 0 0 "/></g></g></g><g fill="#dc3c4d" fill-opacity="0.302"><g transform="translate(113.18269, 218.710314)"><g><path d="M 7.390625 -1.046875 L 6.34375 -8.4375 L 21.15625 -10.515625 L 22.203125 -3.125 Z M -1.046875 -7.390625 L -4.171875 -29.59375 L 3.21875 -30.640625 L 6.34375 -8.4375 Z M 21.15625 -10.515625 L 18.03125 -32.71875 L 25.421875 -33.765625 L 28.546875 -11.5625 Z M 3.21875 -30.640625 L 2.1875 -38.046875 L 17 -40.125 L 18.03125 -32.71875 Z M 3.21875 -30.640625 "/></g></g></g><g fill="#dc3c4d" fill-opacity="0.302"><g transform="translate(150.179026, 213.504237)"><g><path d="M 0 0 L -5.203125 -37 L 2.1875 -38.046875 L 6.34375 -8.4375 L 13.765625 -9.46875 L 9.609375 -39.078125 L 17 -40.125 L 22.203125 -3.125 Z M 0 0 "/></g></g></g><g fill="#dc3c4d" fill-opacity="0.302"><g transform="translate(179.776094, 209.339375)"><g><path d="M 0 0 L -5.203125 -37 L 2.1875 -38.046875 L 3.21875 -30.640625 L 10.640625 -31.671875 L 11.6875 -24.28125 L 4.265625 -23.25 L 7.390625 -1.046875 Z M 22.203125 -3.125 L 20.125 -17.9375 L 12.734375 -16.890625 L 11.6875 -24.28125 L 19.078125 -25.328125 L 17 -40.125 L 24.390625 -41.171875 L 29.59375 -4.171875 Z M 22.203125 -3.125 "/></g></g></g><g fill="#dc3c4d" fill-opacity="0.302"><g transform="translate(216.77243, 204.133299)"><g><path d="M 13.765625 -9.46875 L 10.640625 -31.671875 L 18.03125 -32.71875 L 21.15625 -10.515625 Z M 0 0 L -5.203125 -37 L 9.609375 -39.078125 L 10.640625 -31.671875 L 3.21875 -30.640625 L 6.34375 -8.4375 L 13.765625 -9.46875 L 14.8125 -2.078125 Z M 0 0 "/></g></g></g><g fill="#dc3c4d" fill-opacity="0.502"><g transform="translate(85.029334, 221.574774)"><g><path d="M 14.8125 -2.078125 L 12.734375 -16.890625 L 20.125 -17.9375 L 22.203125 -3.125 Z M 11.6875 -24.28125 L 10.640625 -31.671875 L 18.03125 -32.71875 L 19.078125 -25.328125 Z M 0 0 L -5.203125 -37 L 9.609375 -39.078125 L 10.640625 -31.671875 L 3.21875 -30.640625 L 4.265625 -23.25 L 11.6875 -24.28125 L 12.734375 -16.890625 L 5.3125 -15.859375 L 7.390625 -1.046875 Z M 0 0 "/></g></g></g><g fill="#dc3c4d" fill-opacity="0.502"><g transform="translate(114.626403, 217.409912)"><g><path d="M 7.390625 -1.046875 L 6.34375 -8.4375 L 21.15625 -10.515625 L 22.203125 -3.125 Z M -1.046875 -7.390625 L -4.171875 -29.59375 L 3.21875 -30.640625 L 6.34375 -8.4375 Z M 21.15625 -10.515625 L 18.03125 -32.71875 L 25.421875 -33.765625 L 28.546875 -11.5625 Z M 3.21875 -30.640625 L 2.1875 -38.046875 L 17 -40.125 L 18.03125 -32.71875 Z M 3.21875 -30.640625 "/></g></g></g><g fill="#dc3c4d" fill-opacity="0.502"><g transform="translate(151.622738, 212.203835)"><g><path d="M 0 0 L -5.203125 -37 L 2.1875 -38.046875 L 6.34375 -8.4375 L 13.765625 -9.46875 L 9.609375 -39.078125 L 17 -40.125 L 22.203125 -3.125 Z M 0 0 "/></g></g></g><g fill="#dc3c4d" fill-opacity="0.502"><g transform="translate(181.219807, 208.038974)"><g><path d="M 0 0 L -5.203125 -37 L 2.1875 -38.046875 L 3.21875 -30.640625 L 10.640625 -31.671875 L 11.6875 -24.28125 L 4.265625 -23.25 L 7.390625 -1.046875 Z M 22.203125 -3.125 L 20.125 -17.9375 L 12.734375 -16.890625 L 11.6875 -24.28125 L 19.078125 -25.328125 L 17 -40.125 L 24.390625 -41.171875 L 29.59375 -4.171875 Z M 22.203125 -3.125 "/></g></g></g><g fill="#dc3c4d" fill-opacity="0.502"><g transform="translate(218.216142, 202.832897)"><g><path d="M 13.765625 -9.46875 L 10.640625 -31.671875 L 18.03125 -32.71875 L 21.15625 -10.515625 Z M 0 0 L -5.203125 -37 L 9.609375 -39.078125 L 10.640625 -31.671875 L 3.21875 -30.640625 L 6.34375 -8.4375 L 13.765625 -9.46875 L 14.8125 -2.078125 Z M 0 0 "/></g></g></g><g fill="#f8000b" fill-opacity="1"><g transform="translate(86.473046, 220.274403)"><g><path d="M 14.8125 -2.078125 L 12.734375 -16.890625 L 20.125 -17.9375 L 22.203125 -3.125 Z M 11.6875 -24.28125 L 10.640625 -31.671875 L 18.03125 -32.71875 L 19.078125 -25.328125 Z M 0 0 L -5.203125 -37 L 9.609375 -39.078125 L 10.640625 -31.671875 L 3.21875 -30.640625 L 4.265625 -23.25 L 11.6875 -24.28125 L 12.734375 -16.890625 L 5.3125 -15.859375 L 7.390625 -1.046875 Z M 0 0 "/></g></g></g><g fill="#f8000b" fill-opacity="1"><g transform="translate(116.070115, 216.109542)"><g><path d="M 7.390625 -1.046875 L 6.34375 -8.4375 L 21.15625 -10.515625 L 22.203125 -3.125 Z M -1.046875 -7.390625 L -4.171875 -29.59375 L 3.21875 -30.640625 L 6.34375 -8.4375 Z M 21.15625 -10.515625 L 18.03125 -32.71875 L 25.421875 -33.765625 L 28.546875 -11.5625 Z M 3.21875 -30.640625 L 2.1875 -38.046875 L 17 -40.125 L 18.03125 -32.71875 Z M 3.21875 -30.640625 "/></g></g></g><g fill="#f8000b" fill-opacity="1"><g transform="translate(153.06645, 210.903465)"><g><path d="M 0 0 L -5.203125 -37 L 2.1875 -38.046875 L 6.34375 -8.4375 L 13.765625 -9.46875 L 9.609375 -39.078125 L 17 -40.125 L 22.203125 -3.125 Z M 0 0 "/></g></g></g><g fill="#f8000b" fill-opacity="1"><g transform="translate(182.663519, 206.738604)"><g><path d="M 0 0 L -5.203125 -37 L 2.1875 -38.046875 L 3.21875 -30.640625 L 10.640625 -31.671875 L 11.6875 -24.28125 L 4.265625 -23.25 L 7.390625 -1.046875 Z M 22.203125 -3.125 L 20.125 -17.9375 L 12.734375 -16.890625 L 11.6875 -24.28125 L 19.078125 -25.328125 L 17 -40.125 L 24.390625 -41.171875 L 29.59375 -4.171875 Z M 22.203125 -3.125 "/></g></g></g><g fill="#f8000b" fill-opacity="1"><g transform="translate(219.659854, 201.532527)"><g><path d="M 13.765625 -9.46875 L 10.640625 -31.671875 L 18.03125 -32.71875 L 21.15625 -10.515625 Z M 0 0 L -5.203125 -37 L 9.609375 -39.078125 L 10.640625 -31.671875 L 3.21875 -30.640625 L 6.34375 -8.4375 L 13.765625 -9.46875 L 14.8125 -2.078125 Z M 0 0 "/></g></g></g><g fill="#dc3c4d" fill-opacity="0.302"><g transform="translate(246.360798, 199.969662)"><g/></g></g><g fill="#dc3c4d" fill-opacity="0.302"><g transform="translate(253.760065, 198.928446)"><g/></g></g><g fill="#dc3c4d" fill-opacity="0.502"><g transform="translate(247.80451, 198.66926)"><g/></g></g><g fill="#dc3c4d" fill-opacity="0.502"><g transform="translate(255.203778, 197.628045)"><g/></g></g><g fill="#f8000b" fill-opacity="1"><g transform="translate(249.248223, 197.36889)"><g/></g></g><g fill="#f8000b" fill-opacity="1"><g transform="translate(256.64749, 196.327674)"><g/></g></g><g fill="#dc3c4d" fill-opacity="0.302"><g transform="translate(261.156427, 197.88764)"><g><path d="M 0 0 L -1.046875 -7.390625 L 6.34375 -8.4375 L 4.265625 -23.25 L -3.125 -22.203125 L -4.171875 -29.59375 L 3.21875 -30.640625 L 2.1875 -38.046875 L 9.609375 -39.078125 L 13.765625 -9.46875 L 21.15625 -10.515625 L 22.203125 -3.125 Z M 0 0 "/></g></g></g><g fill="#dc3c4d" fill-opacity="0.502"><g transform="translate(262.60014, 196.587238)"><g><path d="M 0 0 L -1.046875 -7.390625 L 6.34375 -8.4375 L 4.265625 -23.25 L -3.125 -22.203125 L -4.171875 -29.59375 L 3.21875 -30.640625 L 2.1875 -38.046875 L 9.609375 -39.078125 L 13.765625 -9.46875 L 21.15625 -10.515625 L 22.203125 -3.125 Z M 0 0 "/></g></g></g><g fill="#f8000b" fill-opacity="1"><g transform="translate(264.043852, 195.286868)"><g><path d="M 0 0 L -1.046875 -7.390625 L 6.34375 -8.4375 L 4.265625 -23.25 L -3.125 -22.203125 L -4.171875 -29.59375 L 3.21875 -30.640625 L 2.1875 -38.046875 L 9.609375 -39.078125 L 13.765625 -9.46875 L 21.15625 -10.515625 L 22.203125 -3.125 Z M 0 0 "/></g></g></g></svg>